<svg xmlns="http://www.w3.org/2000/svg" viewBox="0 0 500 460" role="img" aria-label="Pi Kappa Phi shield and swords mark">
  <path fill="#050505" d="M0 0h500v460H0zm243.219 21.57-2.272 1.696-2.447 1.859-5.184 3.879-2.679 2.016c-4.048 3.04-8.123 6.042-12.2 9.043l-2.378 1.754a1722 1722 0 0 1-18.257 13.258 583 583 0 0 0-12.048 8.886l-2.627 1.978a606 606 0 0 0-5.023 3.832l-2.288 1.721c-.665.51-1.331 1.018-2.017 1.543L172 74c-3.329-1.11-4.05-1.951-6.238-4.582-3.53-4.159-7.204-8.142-10.95-12.106l-3.949-4.199-1.966-2.091A1704 1704 0 0 1 140.5 42l-1.38-1.487c-.22-.24-.22-.24-1.339-1.45l-1.383-1.46C135 36 135 36 133.67 34.008c-4.99-6.965-11.705-8.336-19.651-10.084-2.22-.49-4.427-1.02-6.635-1.559C95.7 19.605 95.7 19.605 92 21c.45 4.773.963 9.534 1.532 14.294q.277 2.421.502 4.847C95.247 53.061 98.444 59.194 108 68a174 174 0 0 1 4.313 5.313c4.321 5.376 8.981 10.386 13.727 15.385A201 201 0 0 1 136 100c-12.967 10.733-26.78 20.415-40.435 30.243-6.91 4.984-13.727 10.087-20.527 15.22-3.674 2.77-7.356 5.528-11.038 8.287l-4.062 3.047L57 159c.6 6.708 2.268 12.758 4.281 19.172l1.007 3.262q1.6 5.16 3.212 10.316l2.07 6.695A2920 2920 0 0 0 78.38 232.59c4.943 15.307 9.677 30.678 14.394 46.056q1.35 4.403 2.706 8.805l3.88 12.627Q101.192 306.036 103 312l.709 2.325c1.094 3.678 1.718 6.013.291 9.675a74 74 0 0 1-5.125 5.813l-3.031 3.199-1.489 1.556c-1.712 1.809-3.352 3.672-4.98 5.557-4.06 4.683-8.22 9.277-12.375 13.875-3.212-6.924-6.237-13.885-9-21h-2a98 98 0 0 0-3.937 4.813c-4.197 5.257-8.674 9.903-13.485 14.613-2.842 2.838-5.474 5.797-8.074 8.855-1.415 1.618-2.89 3.108-4.441 4.594C34 368 34 368 34 370l1.877.396c2.856.607 5.708 1.23 8.56 1.854l2.952.621C53.65 374.253 59.257 376.14 65 379l-2.746 1.836c-11.858 8.087-22.778 17.118-26.066 31.789L36 415l-2.125.063c-4.243 1.383-6.297 4.404-8.875 7.937-1.623 3.245-1.563 6.493-1 10 2.158 4.532 5.283 8.135 10 10 4.764.53 6.962.519 11.25-1.625 3.806-3.287 6.16-6.604 7.75-11.375 1.934-1.07 1.934-1.07 4.438-2.125C70.888 421.467 78.375 409.781 85 397c5.286 9.749 8.996 19.342 12 30h2c1.33-1.491 2.587-3.047 3.813-4.625 3.76-4.708 7.688-9.17 11.812-13.562 4.149-4.42 8.246-8.864 12.203-13.458.699-.807 1.417-1.6 2.172-2.355 3.106-.116 6.191-.166 9.298-.174l2.995-.02q5.008-.028 10.016-.046l7.149-.04c7.85-.042 15.7-.072 23.55-.099l2.022-.007a28176 28176 0 0 1 48.482-.129l2.195-.005c11.729-.025 23.457-.082 35.186-.151q18.057-.105 36.114-.122c6.76-.008 13.52-.028 20.28-.083 6.362-.05 12.722-.063 19.084-.047q3.502 0 7.006-.044c3.189-.038 6.374-.026 9.563-.002l2.801-.068c3.896.075 6.303.236 9.353 2.792 1.77 2.01 3.35 4.066 4.906 6.245q2.18 2.412 4.375 4.813c5.519 6.113 10.792 12.443 15.762 19.011L401 427h2l.67-2c1.02-3.024 2.05-6.043 3.08-9.062l1.055-3.147c1.938-5.655 4.007-10.728 7.195-15.791l1.398 2.676c6.97 12.973 16.005 25.458 30.602 30.324.992 1.707.992 1.707 1.875 3.813 2.084 4.471 4.685 6.967 9.125 9.187 4.643.387 7.056.472 11.25-1.625 3.579-3.09 6.234-5.732 7.168-10.516.327-5.196-.757-8.464-4.05-12.484-1.673-1.682-3.087-2.69-5.368-3.375h-3l-.187-2.937c-1.566-10.393-9.844-19.083-17.735-25.403-3.63-2.655-7.337-5.166-11.078-7.66 10.13-4.367 20.224-6.835 31-9-1.38-3.077-2.979-5.259-5.309-7.687l-1.999-2.101-2.13-2.212-4.351-4.574-2.165-2.271a732 732 0 0 1-8.358-8.967l-2.551-2.77C437 337 437 337 435.332 334.676L434 333h-2l-8 20c-5.418-4.644-10.226-9.202-15.062-14.375l-2.065-2.172-2.033-2.164-1.801-1.915L401 330l-1.658-1.698c-4.336-4.878-4.336-4.878-4.352-8.605.599-2.662 1.419-5.132 2.362-7.693l.969-2.923c1.066-3.186 2.185-6.35 3.304-9.519q1.14-3.365 2.27-6.734 2.349-6.983 4.75-13.949c3.24-9.422 6.308-18.9 9.38-28.378a3757 3757 0 0 1 2.943-9.017c4.987-15.226 9.9-30.474 14.782-45.734l1.026-3.206C440.242 181.714 443.7 170.882 447 160c-6.137-5.152-12.49-9.768-19.125-14.25-6.078-4.106-12.044-8.3-17.875-12.75-6.507-4.961-13.193-9.606-19.969-14.19-6.49-4.404-12.829-8.988-19.125-13.665A151 151 0 0 0 365 101c1.616-3.924 4.313-6.714 7.188-9.75l3.015-3.242 1.47-1.577c6.506-7.018 12.69-14.38 18.829-21.72C397 63 397 63 398.625 61.46c5.31-5.278 5.823-11.049 6.688-18.272l.47-3.408c.89-6.577 1.606-13.17 2.217-19.779-7.947 1.401-15.865 2.904-23.75 4.625l-3.285.637C373.118 27.015 369.68 29.602 365 36a160 160 0 0 1-3.324 3.605l-1.66 1.771-1.704 1.812-3.68 3.93-1.842 1.967A1518 1518 0 0 0 330 74c-2.986-.6-5.01-1.492-7.477-3.266l-2.003-1.427-2.145-1.557-2.262-1.62A1893 1893 0 0 1 309 61l-4.523-3.266a5818 5818 0 0 1-6.743-4.876 1528 1528 0 0 0-17.315-12.32c-6.16-4.337-12.265-8.744-18.356-13.175A1010 1010 0 0 0 256 23l-1.745-1.262c-4.523-3.172-6.635-3.488-11.036-.168"/>
  <path fill="#E6A513" d="M249 38c2.02 3.031 2.954 5.524 4.084 8.973l1.24 3.762 1.34 4.113 1.409 4.29q1.892 5.767 3.772 11.536 1.558 4.766 3.12 9.531a6643 6643 0 0 1 21.424 66.477l.939 2.959q.856 2.703 1.707 5.41c1.853 5.837 1.853 5.837 2.965 6.949 1.772.096 3.547.122 5.321.12l3.498.004 3.87-.01h4.05q5.514-.001 11.027-.013c3.837-.006 7.674-.006 11.51-.008q10.908-.005 21.813-.021 12.414-.016 24.827-.022 25.542-.016 51.084-.05c-1.149 3.446-1.762 3.785-4.707 5.688l-2.423 1.587-2.683 1.725q-2.893 1.894-5.785 3.793l-3.14 2.056c-5.71 3.765-11.359 7.617-17.012 11.464l-3.599 2.445q-4.47 3.037-8.937 6.076l-8.073 5.49-9.173 6.24a11292 11292 0 0 1-20.69 14.043q-3.607 2.445-7.216 4.887l-3.34 2.264-3.182 2.157c-3.745 2.568-7.438 5.204-11.116 7.866C315 241 315 241 313 241c5.2 16.006 10.793 31.835 16.667 47.606a7546 7546 0 0 1 6.888 18.597l.697 1.887c4.709 12.752 9.319 25.54 13.873 38.348l1.01 2.832c3.156 8.855 6.301 17.681 8.865 26.73-5.075-3.224-9.64-6.898-14.25-10.75l-4.574-3.793-2.2-1.826c-3.078-2.541-6.2-5.026-9.324-7.51-3.567-2.853-7.109-5.738-10.652-8.621-4.32-3.516-8.644-7.027-13-10.5-5.067-4.04-10.09-8.133-15.117-12.223-4.38-3.56-8.774-7.1-13.192-10.613a714 714 0 0 1-6.539-5.328C258.265 294.42 258.265 294.42 251 290c-8.287 6.177-16.511 12.435-24.727 18.707a2314 2314 0 0 1-18.46 13.918 1217 1217 0 0 0-21.306 16.317c-5.43 4.241-10.923 8.392-16.451 12.504-6.003 4.48-11.902 9.09-17.767 13.747-4.586 3.608-9.288 6.804-14.289 9.807a316 316 0 0 1 6.598-20.156l1.05-2.91q1.705-4.719 3.415-9.434 1.2-3.318 2.397-6.638 2.5-6.923 5.004-13.844 3.732-10.326 7.446-20.659l1.205-3.35 4.615-12.832Q177.32 264.072 185 243c-2.91-2.98-5.747-5.298-9.25-7.562a718 718 0 0 1-14.312-9.625l-4.11-2.833-2.135-1.47c-3.83-2.636-7.668-5.26-11.506-7.885l-2.401-1.643L134 207c-18.146-12.408-18.146-12.408-27.187-18.625l-1.957-1.345a8998 8998 0 0 1-9.985-6.878C86.96 174.698 79.017 169.3 71 164l1-2 136 1 3-11q1.184-3.786 2.445-7.546l.682-2.042q1.104-3.297 2.213-6.592l1.582-4.731q2.083-6.229 4.174-12.455a24661 24661 0 0 0 8.182-24.43c4.77-14.257 9.43-28.55 14.032-42.862l.732-2.272 1.349-4.201c1.497-4.644 1.497-4.644 2.609-6.869"/>
  <path fill="#fff" d="M249 38c2.02 3.031 2.954 5.524 4.084 8.973l1.24 3.762 1.34 4.113 1.409 4.29q1.892 5.767 3.772 11.536 1.558 4.766 3.12 9.531a6643 6643 0 0 1 21.424 66.477l.939 2.959q.856 2.703 1.707 5.41c1.853 5.837 1.853 5.837 2.965 6.949 1.772.096 3.547.122 5.321.12l3.498.004 3.87-.01h4.05q5.514-.001 11.027-.013c3.837-.006 7.674-.006 11.51-.008q10.908-.005 21.813-.021 12.414-.016 24.827-.022 25.542-.016 51.084-.05c-1.149 3.446-1.762 3.785-4.707 5.688l-2.423 1.587-2.683 1.725q-2.893 1.894-5.785 3.793l-3.14 2.056c-5.71 3.765-11.359 7.617-17.012 11.464l-3.599 2.445q-4.47 3.037-8.937 6.076l-8.073 5.49-9.173 6.24a11292 11292 0 0 1-20.69 14.043q-3.607 2.445-7.216 4.887l-3.34 2.264-3.182 2.157c-3.745 2.568-7.438 5.204-11.116 7.866C315 241 315 241 313 241c5.2 16.006 10.793 31.835 16.667 47.606a7546 7546 0 0 1 6.888 18.597l.697 1.887c4.709 12.752 9.319 25.54 13.873 38.348l1.01 2.832c3.156 8.855 6.301 17.681 8.865 26.73-5.075-3.224-9.64-6.898-14.25-10.75l-4.574-3.793-2.2-1.826c-3.078-2.541-6.2-5.026-9.324-7.51-3.567-2.853-7.109-5.738-10.652-8.621-4.32-3.516-8.644-7.027-13-10.5-5.067-4.04-10.09-8.133-15.117-12.223-4.38-3.56-8.774-7.1-13.192-10.613a714 714 0 0 1-6.539-5.328C258.265 294.42 258.265 294.42 251 290c-8.287 6.177-16.511 12.435-24.727 18.707a2314 2314 0 0 1-18.46 13.918 1217 1217 0 0 0-21.306 16.317c-5.43 4.241-10.923 8.392-16.451 12.504-6.003 4.48-11.902 9.09-17.767 13.747-4.586 3.608-9.288 6.804-14.289 9.807a316 316 0 0 1 6.598-20.156l1.05-2.91q1.705-4.719 3.415-9.434 1.2-3.318 2.397-6.638 2.5-6.923 5.004-13.844 3.732-10.326 7.446-20.659l1.205-3.35 4.615-12.832Q177.32 264.072 185 243c-2.91-2.98-5.747-5.298-9.25-7.562a718 718 0 0 1-14.312-9.625l-4.11-2.833-2.135-1.47c-3.83-2.636-7.668-5.26-11.506-7.885l-2.401-1.643L134 207c-18.146-12.408-18.146-12.408-27.187-18.625l-1.957-1.345a8998 8998 0 0 1-9.985-6.878C86.96 174.698 79.017 169.3 71 164l1-2 136 1 3-11q1.184-3.786 2.445-7.546l.682-2.042q1.104-3.297 2.213-6.592l1.582-4.731q2.083-6.229 4.174-12.455a24661 24661 0 0 0 8.182-24.43c4.77-14.257 9.43-28.55 14.032-42.862l.732-2.272 1.349-4.201c1.497-4.644 1.497-4.644 2.609-6.869m0 38a430 430 0 0 0-6.003 16.847l-.858 2.56q-1.39 4.15-2.776 8.3l-1.937 5.796q-2.023 6.052-4.042 12.106-2.593 7.767-5.196 15.529a9814 9814 0 0 0-3.992 11.949q-.956 2.865-1.917 5.728-1.338 3.99-2.664 7.985l-.808 2.394c-1.009 3.05-1.807 5.572-1.807 8.806H108c3.426 3.426 6.734 5.966 10.75 8.563l4.063 2.671 2.105 1.385c3.305 2.192 6.57 4.44 9.832 6.694l4.016 2.769 2.076 1.432c3.88 2.671 7.77 5.328 11.658 7.986q10.79 7.378 21.559 14.79 4.173 2.87 8.351 5.733l2.2 1.51 4.164 2.852c2.566 1.761 5.098 3.515 7.554 5.428C198 237 198 237 200 237l-.675 1.784c-6.11 16.159-12.018 32.383-17.825 48.654l-3.592 10.043q-1.18 3.303-2.357 6.607c-2.033 5.7-4.09 11.39-6.184 17.069l-1.282 3.497q-1.218 3.32-2.456 6.633l-1.092 2.983-.975 2.63C163 339 163 339 164 341c8.287-6.177 16.511-12.435 24.727-18.707a2314 2314 0 0 1 18.46-13.918 1212 1212 0 0 0 21.266-16.286c7.434-5.806 14.98-11.46 22.547-17.089 4.88 2.655 8.95 6.138 13.188 9.688l4.601 3.82 2.22 1.845c3.08 2.549 6.208 5.038 9.339 7.526 3.567 2.853 7.109 5.738 10.652 8.621 4.32 3.516 8.644 7.027 13 10.5 5.055 4.03 10.067 8.114 15.082 12.194A1918 1918 0 0 0 335 342c1-2 1-2 .475-4.012l-.928-2.518-1.049-2.882-1.178-3.162-1.211-3.31c-1.321-3.603-2.653-7.203-3.984-10.803q-1.365-3.717-2.728-7.434-2.095-5.719-4.196-11.434a6268 6268 0 0 1-12.83-35.277q-1.668-4.621-3.34-9.243L299 238c8.392-6.212 16.968-12.105 25.625-17.937l4.122-2.785q3.129-2.115 6.259-4.228c7.3-4.93 14.585-9.882 21.865-14.84a4031 4031 0 0 1 14.43-9.79q3.532-2.383 7.059-4.77 1.693-1.144 3.389-2.284 2.333-1.57 4.661-3.147l2.692-1.815L391 175v-1H281l-2-9a124 124 0 0 0-1.49-4.885l-.844-2.584-.904-2.722-.962-2.933q-1.552-4.72-3.113-9.439l-2.148-6.538-3.286-10A8495 8495 0 0 1 255.5 92.938L250 76z"/>
  <path fill="#050505" d="M379 369c3.68 2.758 6.495 5.62 9.313 9.25l2.113 2.703L392 383c-3.697 2.115-7.657 3.08-11.75 4.125l-2.113.55q-2.567.668-5.137 1.325c1.369-6.958 3.453-13.386 6-20M120 369c2 1 2 1 3.324 4.492q.694 2.188 1.364 4.383l.72 2.223c1.717 5.527 1.717 5.527.592 8.902l-18-5c3.822-5.187 7.757-10.151 12-15"/>
</svg>
