<svg xmlns="http://www.w3.org/2000/svg" viewBox="0 0 800 600" role="img" aria-label="Pi Kappa Phi coat of arms">
  <defs>
    <linearGradient id="coatBlueEnamel" x1="210" y1="76" x2="580" y2="560" gradientUnits="userSpaceOnUse">
      <stop offset="0" stop-color="#2F78B7"/>
      <stop offset="0.18" stop-color="#005596"/>
      <stop offset="0.42" stop-color="#003F73"/>
      <stop offset="0.66" stop-color="#004B84"/>
      <stop offset="1" stop-color="#002E54"/>
    </linearGradient>
    <linearGradient id="coatGoldMetal" x1="220" y1="70" x2="585" y2="552" gradientUnits="userSpaceOnUse">
      <stop offset="0" stop-color="#FFF1A6"/>
      <stop offset="0.18" stop-color="#F3C04D"/>
      <stop offset="0.38" stop-color="#E7A614"/>
      <stop offset="0.56" stop-color="#B97800"/>
      <stop offset="0.74" stop-color="#FFE08A"/>
      <stop offset="1" stop-color="#E7A614"/>
    </linearGradient>
    <filter id="coatSoftDepth" x="-6%" y="-6%" width="112%" height="112%" color-interpolation-filters="sRGB">
      <feDropShadow dx="0" dy="6" stdDeviation="4" flood-color="#000000" flood-opacity="0.32"/>
      <feDropShadow dx="0" dy="0" stdDeviation="2" flood-color="#005596" flood-opacity="0.16"/>
    </filter>
  </defs>

 <g>
  <title>Layer 1</title>
  <path fill-rule="evenodd" fill="url(#coatGoldMetal)" filter="url(#coatSoftDepth)" d="m400.20002,62.4222c-0.588,0.432 -1.4,1.991 -1.4,2.689c0,0.333 -0.18,0.605 -0.4,0.605c-0.22,0 -0.4,0.36 -0.4,0.8c0,0.44 -0.18,0.8 -0.4,0.8c-0.22,0 -0.4,0.36 -0.4,0.8c0,0.44 -0.18,0.8 -0.4,0.8c-0.753,0 -0.143,2.351 0.829,3.2c0.477,0.416 0.729,1.6 0.34,1.6c-0.632,0 -2.369,1.893 -2.369,2.582c0,0.34 -0.18,0.618 -0.4,0.618c-0.22,0 -0.4,0.463 -0.4,1.029c0,1.114 -0.819,2.171 -1.683,2.171c-0.297,0 -0.8,0.36 -1.117,0.8c-0.339,0.47 -1.035,0.8 -1.688,0.8c-0.612,0 -1.112,0.18 -1.112,0.4c0,0.22 -0.529,0.4 -1.176,0.4c-0.647,0 -1.288,0.18 -1.424,0.4c-0.136,0.22 -0.747,0.4 -1.357,0.4c-1.402,0 -1.717,0.315 -1.227,1.229c0.383,0.717 36.166,1.255 36.867,0.554c0.89,-0.89 -0.276,-1.783 -2.33,-1.783c-1.184,0 -2.153,-0.18 -2.153,-0.4c0,-0.22 -0.54,-0.4 -1.2,-0.4c-0.66,0 -1.2,-0.18 -1.2,-0.4c0,-0.22 -0.54,-0.4 -1.2,-0.4c-0.66,0 -1.2,-0.18 -1.2,-0.4c0,-0.22 -0.278,-0.4 -0.618,-0.4c-0.8,0 -2.582,-1.782 -2.582,-2.582c0,-0.34 -0.18,-0.618 -0.4,-0.618c-0.22,0 -0.4,-0.463 -0.4,-1.029c0,-1.054 -0.808,-2.171 -1.571,-2.171c-0.236,0 -0.429,-0.18 -0.429,-0.4c0,-0.22 -0.27,-0.4 -0.6,-0.4c-0.794,0 -0.745,-0.392 0.2,-1.6c1.24,-1.585 0.27,-7.2 -1.244,-7.2c-0.196,0 -0.356,-0.414 -0.356,-0.92c0,-1.582 -2.079,-2.545 -3.4,-1.574m-40.733,4.361c-0.147,0.146 -0.267,1.406 -0.267,2.8c0,1.422 -0.175,2.533 -0.4,2.533c-0.22,0 -0.4,0.36 -0.4,0.8c0,0.44 -0.18,0.8 -0.4,0.8c-0.22,0 -0.4,0.36 -0.4,0.8c0,0.44 -0.18,0.8 -0.4,0.8c-0.237,0 -0.4,1.467 -0.4,3.6c0,2.133 0.163,3.6 0.4,3.6c0.22,0 0.4,0.435 0.4,0.967c0,0.531 0.225,1.057 0.5,1.168c0.275,0.111 -0.445,0.216 -1.6,0.233c-1.601,0.025 -2.1,0.177 -2.1,0.642c0,0.358 -0.496,0.709 -1.2,0.85c-1.533,0.307 -1.82,3.346 -0.4,4.233c0.44,0.275 0.8,0.734 0.8,1.021c0,0.724 1.83,2.486 2.582,2.486c0.34,0 0.618,0.18 0.618,0.4c0,0.22 0.36,0.4 0.8,0.4c0.44,0 0.8,0.18 0.8,0.4c0,0.251 2.533,0.4 6.8,0.4c4.267,0 6.8,0.149 6.8,0.4c0,0.22 0.36,0.4 0.8,0.4c0.44,0 0.8,0.18 0.8,0.4c0,0.22 0.54,0.4 1.2,0.4c0.66,0 1.2,0.18 1.2,0.4c0,0.22 0.45,0.4 1,0.4c0.55,0 1,0.18 1,0.4c0,0.22 0.349,0.4 0.776,0.4c0.427,0 0.888,0.18 1.024,0.4c0.136,0.22 0.687,0.4 1.224,0.4c0.537,0 0.976,0.18 0.976,0.4c0,0.22 0.36,0.4 0.8,0.4c0.44,0 0.8,0.18 0.8,0.4c0,0.22 0.45,0.4 1,0.4c0.55,0 1,0.18 1,0.4c0,0.22 0.45,0.4 1,0.4c0.55,0 1,0.18 1,0.4c0,0.22 0.45,0.4 1,0.4c0.55,0 1,0.18 1,0.4c0,0.22 0.63,0.4 1.4,0.4c0.77,0 1.4,0.18 1.4,0.4c0,0.22 0.54,0.4 1.2,0.4c0.66,0 1.2,0.18 1.2,0.4c0,0.22 0.72,0.4 1.6,0.4c0.88,0 1.6,0.18 1.6,0.4c0,0.22 -0.32,0.4 -0.712,0.4c-0.391,0 -0.971,0.36 -1.288,0.8c-0.317,0.44 -0.976,0.8 -1.465,0.8c-0.488,0 -0.999,0.18 -1.135,0.4c-0.136,0.22 -1.137,0.4 -2.224,0.4c-1.087,0 -1.976,0.18 -1.976,0.4c0,0.22 -0.9,0.4 -2,0.4c-1.1,0 -2,0.18 -2,0.4c0,0.22 -0.288,0.4 -0.64,0.4c-0.351,0 -1.116,0.508 -1.7,1.129c-0.583,0.621 -1.555,1.452 -2.16,1.846c-0.842,0.549 -1.1,1.034 -1.1,2.071l0,1.354l22.2,0l22.2,0l0,-1.6c0,-1.049 -0.18,-1.6 -0.522,-1.6c-0.286,0 -1.14,-0.639 -1.896,-1.419c-1.762,-1.817 -3.314,-2.581 -5.243,-2.581c-0.847,0 -1.539,-0.18 -1.539,-0.4c0,-0.22 -0.889,-0.4 -1.976,-0.4c-1.087,0 -2.088,-0.18 -2.224,-0.4c-0.136,-0.22 -0.867,-0.4 -1.624,-0.4c-1.463,0 -1.893,-0.923 -0.896,-1.92c0.578,-0.578 5.12,-0.649 5.12,-0.08c0,0.222 1.067,0.4 2.4,0.4c1.333,0 2.4,-0.178 2.4,-0.4c0,-0.22 0.63,-0.4 1.4,-0.4c0.77,0 1.4,-0.18 1.4,-0.4c0,-0.22 0.349,-0.4 0.776,-0.4c0.427,0 0.888,-0.18 1.024,-0.4c0.136,-0.22 0.687,-0.4 1.224,-0.4c0.537,0 0.976,-0.18 0.976,-0.4c0,-0.22 0.54,-0.4 1.2,-0.4c0.66,0 1.2,-0.18 1.2,-0.4c0,-0.22 0.36,-0.4 0.8,-0.4c0.44,0 0.8,-0.18 0.8,-0.4c0,-0.22 0.54,-0.4 1.2,-0.4c0.66,0 1.2,-0.18 1.2,-0.4c0,-0.22 0.36,-0.4 0.8,-0.4c0.44,0 0.8,-0.18 0.8,-0.4c0,-0.22 0.36,-0.4 0.8,-0.4c0.44,0 0.8,-0.18 0.8,-0.4c0,-0.22 0.36,-0.4 0.8,-0.4c0.44,0 0.8,-0.18 0.8,-0.4c0,-0.22 0.36,-0.4 0.8,-0.4c0.44,0 0.8,-0.18 0.8,-0.4c0,-0.22 0.32,-0.4 0.712,-0.4c0.391,0 0.971,-0.36 1.288,-0.8c0.317,-0.44 0.857,-0.8 1.2,-0.8c0.343,0 0.883,-0.36 1.2,-0.8c0.317,-0.44 0.81,-0.8 1.096,-0.8c0.633,0 5.704,-5.007 5.704,-5.632c0,-0.246 0.54,-0.951 1.2,-1.568c0.66,-0.617 1.2,-1.409 1.2,-1.76c0,-0.352 0.18,-0.64 0.4,-0.64c0.22,0 0.4,-0.27 0.4,-0.6c0,-0.33 0.18,-0.6 0.4,-0.6c0.22,0 0.4,-0.36 0.4,-0.8c0,-0.44 0.18,-0.8 0.4,-0.8c0.22,0 0.4,-0.349 0.4,-0.776c0,-0.427 0.18,-0.888 0.4,-1.024c0.22,-0.136 0.4,-0.597 0.4,-1.024c0,-0.427 0.18,-0.776 0.4,-0.776c0.22,0 0.4,-0.63 0.4,-1.4c0,-0.77 0.18,-1.4 0.4,-1.4c0.22,0 0.4,-0.705 0.4,-1.567c0,-0.861 0.208,-1.636 0.463,-1.721c1.107,-0.369 -0.873,-3.912 -2.186,-3.912c-0.347,0 -0.741,-0.18 -0.877,-0.4c-0.322,-0.52 -1.8,-0.52 -1.8,0c0,0.22 -0.99,0.4 -2.2,0.4c-1.21,0 -2.2,0.18 -2.2,0.4c0,0.225 -1.125,0.4 -2.576,0.4c-1.417,0 -2.688,0.18 -2.824,0.4c-0.136,0.22 -0.957,0.4 -1.824,0.4c-0.867,0 -1.576,0.18 -1.576,0.4c0,0.222 -1.059,0.4 -2.376,0.4c-1.307,0 -2.488,0.18 -2.624,0.4c-0.136,0.22 -0.856,0.4 -1.6,0.4c-0.744,0 -1.464,0.18 -1.6,0.4c-0.136,0.22 -0.621,0.4 -1.077,0.4c-2.174,0 -2.722,1.679 -2.723,8.343c0,5.713 -0.049,6.119 -0.7,5.801c-1.063,-0.518 -46.129,-0.675 -46.641,-0.163c-0.883,0.883 -11.059,0.532 -11.059,-0.381c0,-0.696 -0.267,-0.8 -2.047,-0.8c-1.938,0 -2.032,-0.048 -1.767,-0.9c0.153,-0.495 0.383,-1.35 0.511,-1.9c0.128,-0.55 0.563,-1.59 0.968,-2.312c0.792,-1.414 1.015,-5.068 0.335,-5.488c-0.22,-0.136 -0.4,-0.578 -0.4,-0.983c0,-0.405 -0.9,-1.655 -2,-2.778c-1.32,-1.348 -2,-2.382 -2,-3.041c0,-0.978 -1.405,-1.46 -2.133,-0.731m89.333,8.533c0,0.44 -0.18,0.8 -0.4,0.8c-0.22,0 -0.4,0.54 -0.4,1.2c0,0.66 -0.145,1.2 -0.321,1.2c-0.177,0 -0.762,0.897 -1.3,1.994c-0.539,1.096 -1.114,1.996 -1.279,2c-0.165,0.003 -0.3,0.285 -0.3,0.625c0,0.985 -6.263,6.986 -8.506,8.149c-0.602,0.312 -1.094,0.717 -1.094,0.9c0,0.182 -0.315,0.336 -0.7,0.341c-0.385,0.005 -1.15,0.361 -1.7,0.791c-0.55,0.43 -1.304,0.786 -1.676,0.791c-0.372,0.005 -0.788,0.189 -0.924,0.409c-0.136,0.22 -0.507,0.4 -0.824,0.4c-0.317,0 -0.576,-0.18 -0.576,-0.4c0,-0.22 0.234,-0.4 0.52,-0.4c0.286,0 1.005,-0.225 1.597,-0.5l1.077,-0.5l0.003,-5.1c0.002,-3.131 0.157,-5.1 0.403,-5.1c0.226,0 0.4,-1.133 0.4,-2.6l0,-2.6l1.176,0c0.647,0 1.288,-0.18 1.424,-0.4c0.136,-0.22 0.867,-0.4 1.624,-0.4c0.757,0 1.376,-0.18 1.376,-0.4c0,-0.22 0.979,-0.4 2.176,-0.4c1.197,0 2.288,-0.18 2.424,-0.4c0.136,-0.22 0.912,-0.403 1.724,-0.406c0.812,-0.003 1.746,-0.181 2.076,-0.394c1.024,-0.662 2,-0.466 2,0.4m-102.538,45.931c-0.364,0.403 -0.662,0.871 -0.662,1.04c0,0.169 -0.496,0.785 -1.101,1.369c-1.137,1.094 -2.099,3.278 -2.099,4.765c0,0.466 -0.18,0.959 -0.4,1.095c-0.22,0.136 -0.4,0.676 -0.4,1.2c0,0.524 0.18,1.064 0.4,1.2c0.22,0.136 0.4,0.777 0.4,1.424c0,0.647 0.18,1.176 0.4,1.176c0.22,0 0.4,0.36 0.4,0.8c0,0.44 0.18,0.8 0.4,0.8c0.22,0 0.4,0.276 0.4,0.613c0,0.796 2.591,3.387 3.387,3.387c0.337,0 0.613,0.18 0.613,0.4c0,0.261 6.125,0.4 17.576,0.4c11.287,0 17.665,0.143 17.824,0.4c0.162,0.262 12.677,0.4 36.242,0.4l35.994,0l0.982,-0.982c1.832,-1.831 0.655,-6.162 -1.395,-5.131c-0.722,0.363 -29.363,0.654 -30.75,0.313c-0.601,-0.148 -0.88,-0.47 -0.794,-0.914c0.121,-0.629 1.376,-0.703 15.126,-0.886l14.995,-0.2l0.128,-0.9l0.128,-0.9l-15.195,0c-15.336,0 -16.461,-0.068 -16.461,-1c0,-0.932 1.124,-1 16.433,-1l15.167,0l0,-1l0,-1l-14.976,0c-15.129,0 -16.108,-0.093 -14.998,-1.431c0.673,-0.811 30.803,-0.684 31.074,0.131c0.252,0.756 0.694,0.614 2.058,-0.66c1.573,-1.47 1.672,-3.246 0.26,-4.658l-0.982,-0.982l-54.756,0c-52.539,0 -54.783,0.03 -55.418,0.731m6.687,5.569c-0.434,1.412 -0.416,5.9 0.031,7.662l0.345,1.363l-1.512,-0.245c-5.497,-0.892 -5.56,-9.852 -0.07,-9.874c1.5,-0.006 1.534,0.025 1.206,1.094m10.421,0.2c-0.415,1.638 -0.409,5.238 0.012,7.2l0.323,1.5l-2.353,-0.006c-3.294,-0.009 -3.888,-0.584 -4.363,-4.225c-0.506,-3.888 0.903,-5.769 4.323,-5.769l2.388,0l-0.33,1.3m29.572,-0.993c0.104,0.168 -0.006,1.162 -0.245,2.207c-0.399,1.743 -0.257,3.519 0.565,7.086c0.192,0.835 -2.124,0.93 -14.376,0.59l-10.113,-0.281l-0.647,-1.455c-1.003,-2.257 -0.906,-5.596 0.208,-7.161l0.92,-1.293l11.75,0c6.462,0 11.834,0.138 11.938,0.307m8.8,0c0.104,0.168 -0.006,1.162 -0.245,2.207c-0.399,1.743 -0.257,3.519 0.565,7.086c0.107,0.465 -0.267,0.6 -1.662,0.6c-3.505,0 -4.924,-6.39 -2.11,-9.499c0.635,-0.702 3.089,-0.982 3.452,-0.394m17.452,0.193c-0.003,0.275 -0.288,1.31 -0.634,2.3c-0.695,1.994 -0.524,4.137 0.489,6.095c0.867,1.676 0.643,1.733 -5.908,1.505l-5.741,-0.2l-0.754,-1.544c-1.532,-3.137 -1.221,-6.728 0.698,-8.072c1.12,-0.784 11.859,-0.861 11.85,-0.084m-88.394,18.3c0,0.22 -0.225,0.4 -0.5,0.4c-3.019,0.003 -5.202,7.418 -3.416,11.6c0.865,2.025 4.099,5.2 5.297,5.2c0.314,0 0.683,0.18 0.819,0.4c0.513,0.83 7.561,0.486 8.2,-0.4c0.596,-0.826 2,-1.107 2,-0.4c0,0.22 0.36,0.4 0.8,0.4c0.44,0 0.8,0.18 0.8,0.4c0,0.838 7.359,0.484 8.308,-0.4c0.472,-0.44 1.054,-0.8 1.292,-0.8c0.238,0 0.82,0.36 1.292,0.8c0.95,0.885 8.708,1.242 8.708,0.4c0,-0.22 0.27,-0.4 0.6,-0.4c0.33,0 0.6,-0.18 0.6,-0.4c0,-0.707 1.404,-0.426 2,0.4c1.001,1.389 9.582,0.941 9.597,-0.5c0.002,-0.165 0.273,-0.3 0.603,-0.3c0.33,0 0.6,0.18 0.6,0.4c0,0.22 0.36,0.4 0.8,0.4c0.44,0 0.8,0.18 0.8,0.4c0,0.239 1.533,0.4 3.8,0.4c2.267,0 3.8,-0.161 3.8,-0.4c0,-0.22 0.345,-0.4 0.767,-0.4c0.421,0 0.871,-0.225 1,-0.5c0.186,-0.4 0.28,-0.4 0.466,0c0.129,0.275 0.579,0.5 1,0.5c0.422,0 0.767,0.18 0.767,0.4c0,0.24 1.6,0.4 4,0.4c2.4,0 4,-0.16 4,-0.4c0,-0.22 0.345,-0.4 0.767,-0.4c0.421,0 0.871,-0.225 1,-0.5c0.186,-0.4 0.28,-0.4 0.466,0c0.129,0.275 0.579,0.5 1,0.5c0.422,0 0.767,0.18 0.767,0.4c0,0.24 1.6,0.4 4,0.4c2.2,0 4.001,-0.135 4.003,-0.3c0.005,-0.514 2.177,-1.361 2.328,-0.908c0.074,0.224 0.481,0.408 0.902,0.408c0.422,0 0.767,0.18 0.767,0.4c0,0.836 7.145,0.483 8.092,-0.4c0.838,-0.781 2.305,-1.098 2.311,-0.5c0.015,1.441 8.596,1.889 9.597,0.5c0.552,-0.766 1.997,-1.126 2.003,-0.5c0.015,1.445 8.435,1.87 9.905,0.5c1.054,-0.982 1.237,-0.982 2.492,0c1.108,0.867 8.4,1.214 8.4,0.4c0,-0.22 0.345,-0.4 0.767,-0.4c0.421,0 0.871,-0.225 1,-0.5c0.186,-0.4 0.28,-0.4 0.466,0c0.129,0.275 0.579,0.5 1,0.5c0.422,0 0.767,0.18 0.767,0.4c0,0.649 6.886,0.495 8.249,-0.185c6.489,-3.237 5.493,-13.219 -1.681,-16.851c-2.016,-1.021 -8.168,-1.445 -8.168,-0.564c0,0.22 -0.36,0.4 -0.8,0.4c-0.44,0 -0.8,0.18 -0.8,0.4c0,0.22 -0.36,0.4 -0.8,0.4c-0.44,0 -0.8,-0.151 -0.8,-0.336c0,-0.184 -0.458,-0.544 -1.019,-0.8c-1.256,-0.572 -7.781,-0.626 -7.781,-0.064c0,0.22 -0.345,0.4 -0.767,0.4c-0.421,0 -0.833,0.199 -0.914,0.442c-0.094,0.282 -0.688,0.137 -1.645,-0.4c-2.133,-1.198 -7.215,-1.198 -9.348,0c-0.957,0.537 -1.551,0.682 -1.645,0.4c-0.081,-0.243 -0.493,-0.442 -0.914,-0.442c-0.422,0 -0.767,-0.18 -0.767,-0.4c0,-0.239 -1.533,-0.4 -3.8,-0.4c-2.09,0 -3.8,0.136 -3.8,0.302c0,0.573 -2.54,1.478 -2.711,0.966c-0.085,-0.257 -0.501,-0.468 -0.922,-0.468c-0.422,0 -0.767,-0.18 -0.767,-0.4c0,-0.834 -6.961,-0.482 -7.908,0.4c-0.908,0.846 -2.092,1.072 -2.092,0.4c0,-0.22 -0.349,-0.4 -0.776,-0.4c-0.427,0 -0.888,-0.18 -1.024,-0.4c-0.632,-1.022 -8.6,-0.222 -8.6,0.864c0,0.185 -0.36,0.336 -0.8,0.336c-0.44,0 -0.8,-0.18 -0.8,-0.4c0,-0.22 -0.36,-0.4 -0.8,-0.4c-0.44,0 -0.8,-0.18 -0.8,-0.4c0,-0.582 -6.429,-0.498 -7.717,0.1c-0.592,0.275 -1.078,0.635 -1.08,0.8c-0.002,0.165 -0.363,0.3 -0.803,0.3c-0.44,0 -0.8,-0.151 -0.8,-0.336c0,-0.184 -0.458,-0.544 -1.019,-0.8c-1.255,-0.572 -7.381,-0.625 -7.381,-0.064c0,0.22 -0.36,0.4 -0.8,0.4c-0.44,0 -0.8,0.18 -0.8,0.4c0,0.658 -1.331,0.437 -2.4,-0.4c-1.106,-0.865 -8,-1.21 -8,-0.4c0,0.22 -0.345,0.4 -0.767,0.4c-0.421,0 -0.833,0.199 -0.914,0.442c-0.094,0.282 -0.688,0.137 -1.645,-0.4c-1.631,-0.916 -8.674,-1.275 -8.674,-0.442c0,0.22 -0.345,0.4 -0.767,0.4c-0.421,0 -0.871,0.225 -1,0.5c-0.186,0.4 -0.28,0.4 -0.466,0c-0.129,-0.275 -0.568,-0.5 -0.977,-0.5c-0.408,0 -0.854,-0.18 -0.99,-0.4c-0.497,-0.805 -6.844,-0.474 -8.474,0.442c-0.957,0.537 -1.551,0.682 -1.645,0.4c-0.081,-0.243 -0.493,-0.442 -0.914,-0.442c-0.422,0 -0.767,-0.18 -0.767,-0.4c0,-0.239 -1.533,-0.4 -3.8,-0.4c-2.267,0 -3.8,0.161 -3.8,0.4m6.204,4.844c1.637,0.769 1.798,0.973 1.814,2.3c0.009,0.801 0.265,2.152 0.569,3.004c1.399,3.925 -3.461,4.779 -6.887,1.209c-3.972,-4.138 -0.653,-8.937 4.504,-6.513m11.811,0.056c1.715,0.865 1.795,0.986 2.05,3.1c0.146,1.21 0.388,2.673 0.538,3.251c0.834,3.227 -5.415,2.902 -7.769,-0.404c-2.894,-4.064 0.711,-8.201 5.181,-5.947m10.866,-0.429c2.038,0.611 3.119,2.001 3.119,4.009c0,0.865 0.179,1.908 0.399,2.317c1.571,2.937 -3.784,3.68 -6.812,0.944c-3.956,-3.574 -1.616,-8.74 3.294,-7.27m12.734,0.429c1.715,0.865 1.795,0.986 2.05,3.1c0.146,1.21 0.388,2.673 0.538,3.251c0.828,3.203 -5.412,2.907 -7.743,-0.366c-3.058,-4.296 0.444,-8.361 5.155,-5.985m10.832,-0.439c2.062,0.618 2.766,1.494 2.943,3.661c0.081,0.998 0.341,2.175 0.577,2.617c1.6,2.989 -3.711,3.774 -6.78,1.002c-3.938,-3.558 -1.618,-8.741 3.26,-7.28m12.639,0.322c1.132,0.514 1.742,1.069 1.857,1.691c0.094,0.509 0.373,2.006 0.62,3.326c0.827,4.422 -3.969,5.36 -7.281,1.424c-3.446,-4.095 -0.052,-8.645 4.804,-6.441m10.954,-0.326c2.045,0.686 2.637,1.39 2.911,3.46c0.137,1.036 0.355,2.522 0.483,3.303c0.561,3.397 -5.369,2.957 -7.759,-0.575c-2.424,-3.584 0.361,-7.533 4.365,-6.188m13.376,0.753c1.214,0.75 1.384,1.056 1.384,2.494c0,0.902 0.223,2.255 0.495,3.007c1.286,3.558 -4.812,3.881 -7.425,0.394c-3.538,-4.723 0.499,-9.014 5.546,-5.895m10.224,-0.753c2.045,0.686 2.637,1.39 2.911,3.46c0.137,1.036 0.355,2.522 0.483,3.303c0.574,3.472 -5.285,3.018 -7.766,-0.602c-2.428,-3.544 0.381,-7.502 4.372,-6.161m12.775,0.443c1.715,0.865 1.795,0.986 2.05,3.1c0.146,1.21 0.388,2.673 0.538,3.251c0.814,3.15 -5.144,3.009 -7.576,-0.18c-3.328,-4.363 0.118,-8.627 4.988,-6.171m10.825,-0.443c2.119,0.711 2.63,1.377 2.915,3.799c0.144,1.225 0.426,2.534 0.626,2.908c1.154,2.156 -2.87,3.163 -5.794,1.45c-5.093,-2.985 -3.161,-9.976 2.253,-8.157m13.554,0.891c5.195,3.438 2.36,10.03 -3.297,7.667c-2.839,-1.186 -4.618,-4.72 -3.463,-6.878c1.224,-2.288 4.004,-2.612 6.76,-0.789m-71.028,49.741l-2.766,8.311l-9.3,0.107c-10.359,0.12 -10.389,0.131 -6.8,2.543c7.688,5.166 12.7,8.899 12.7,9.46c0,0.348 -0.525,2.085 -1.168,3.861c-5.255,14.534 -5.092,14.014 -4.287,13.705c0.569,-0.218 12.241,-9.033 13.681,-10.331c1.156,-1.043 1.8,-0.939 3.602,0.579c6.039,5.088 12.362,9.906 12.491,9.518c0.085,-0.254 -1.227,-4.25 -2.914,-8.88c-1.688,-4.631 -2.987,-8.631 -2.886,-8.891c0.1,-0.259 3.624,-2.774 7.831,-5.588c4.208,-2.815 7.65,-5.29 7.65,-5.5c0,-0.233 -3.681,-0.383 -9.4,-0.383c-5.17,0 -9.408,-0.045 -9.418,-0.1c-0.269,-1.479 -5.555,-16.491 -5.841,-16.586c-0.225,-0.075 -1.654,3.603 -3.175,8.175m-70.583,13.411c-0.22,0.495 -1.522,4.32 -2.893,8.5l-2.494,7.6l-9.298,0.107c-5.114,0.059 -9.298,0.253 -9.298,0.431c0,0.177 3.27,2.559 7.267,5.292c9.215,6.302 8.448,5.386 7.25,8.655c-1.278,3.486 -3.984,11.009 -4.768,13.253c-1.015,2.909 -1.595,3.255 11.71,-6.999l3.259,-2.511l1.541,1.125c0.848,0.619 4.132,3.218 7.298,5.775c5.319,4.294 6.988,5.266 6.093,3.548c-0.564,-1.084 -6.05,-16.315 -6.05,-16.799c0,-0.39 2.466,-2.165 12.665,-9.113c1.576,-1.074 2.781,-2.09 2.677,-2.258c-0.104,-0.168 -4.207,-0.306 -9.117,-0.306c-10.598,0 -9.06,1.128 -12.412,-9.1c-2.818,-8.599 -2.813,-8.589 -3.43,-7.2m144.579,7.605l-2.821,8.495l-9.271,0.107c-5.098,0.059 -9.27,0.259 -9.27,0.445c0,0.185 3.237,2.545 7.193,5.244c3.957,2.698 7.408,5.164 7.669,5.479c0.561,0.675 0.395,1.216 -4.432,14.472c-1.636,4.492 -1.466,4.529 3.484,0.758c2.357,-1.795 5.786,-4.399 7.618,-5.786l3.333,-2.521l2.42,1.901c1.331,1.046 4.561,3.656 7.177,5.801c2.617,2.145 4.843,3.9 4.948,3.9c0.447,0 0.028,-1.361 -2.851,-9.262c-3.208,-8.8 -3.248,-9.071 -1.49,-10.215c5.509,-3.584 14.048,-9.673 13.848,-9.873c-0.138,-0.137 -4.331,-0.25 -9.319,-0.25c-9.02,0 -9.072,-0.005 -9.472,-0.9c-0.221,-0.495 -1.437,-4.14 -2.703,-8.1c-3.111,-9.734 -2.721,-9.753 -6.061,0.305m-77.162,41.067c-6.093,3.556 -39.648,22.886 -66.2,38.137c-8.03,4.612 -15.14,8.701 -15.8,9.087c-2.148,1.257 -43.942,25.297 -46,26.459c-1.1,0.622 -2.405,1.134 -2.9,1.138c-0.761,0.006 -0.9,0.224 -0.9,1.407c0,0.77 -0.18,1.4 -0.4,1.4c-0.22,0 -0.4,0.709 -0.4,1.576c0,0.867 -0.18,1.688 -0.4,1.824c-0.22,0.136 -0.4,1.227 -0.4,2.424c0,1.197 -0.18,2.176 -0.4,2.176c-0.22,0 -0.4,0.9 -0.4,2c0,1.1 -0.18,2 -0.4,2c-0.228,0 -0.4,1.192 -0.4,2.776c0,1.527 -0.18,2.888 -0.4,3.024c-0.22,0.136 -0.4,1.407 -0.4,2.824c0,1.451 -0.175,2.576 -0.4,2.576c-0.255,0 -0.4,3.4 -0.4,9.4c0,6 0.145,9.4 0.4,9.4c0.222,0 0.4,1.067 0.4,2.4c0,1.333 0.178,2.4 0.4,2.4c0.22,0 0.4,0.979 0.4,2.176c0,1.197 0.18,2.288 0.4,2.424c0.22,0.136 0.4,0.777 0.4,1.424c0,0.647 0.18,1.176 0.4,1.176c0.22,0 0.4,0.63 0.4,1.4c0,0.77 0.18,1.4 0.4,1.4c0.22,0 0.4,0.438 0.4,0.973c0,2.648 -3.8,4.635 46.6,-24.369c12.54,-7.216 29.37,-16.897 37.4,-21.512c8.03,-4.615 15.14,-8.705 15.8,-9.09c15.74,-9.166 39.138,-22.402 39.603,-22.402c0.339,0 8.487,4.523 18.107,10.052c19.433,11.168 19.56,11.241 21.39,12.301c0.715,0.414 7.24,4.166 14.5,8.338c7.26,4.173 22.2,12.766 33.2,19.096c11,6.331 20.81,11.959 21.8,12.508c0.99,0.549 2.61,1.498 3.6,2.109c0.99,0.61 6.93,4.034 13.2,7.608c6.27,3.574 11.46,6.653 11.533,6.843c0.256,0.661 0.867,0.34 0.867,-0.455c0,-0.44 0.18,-0.8 0.4,-0.8c0.22,0 0.4,-0.54 0.4,-1.2c0,-0.66 0.18,-1.2 0.4,-1.2c0.22,0 0.4,-0.72 0.4,-1.6c0,-0.88 0.18,-1.6 0.4,-1.6c0.22,0 0.4,-0.529 0.4,-1.176c0,-0.647 0.18,-1.288 0.4,-1.424c0.22,-0.136 0.4,-1.407 0.4,-2.824c0,-1.451 0.175,-2.576 0.4,-2.576c0.233,0 0.4,-1.325 0.4,-3.176c0,-1.747 0.18,-3.288 0.4,-3.424c0.533,-0.329 0.533,-9 0,-9c-0.24,0 -0.4,-1.6 -0.4,-4c0,-2.4 -0.16,-4 -0.4,-4c-0.233,0 -0.4,-1.325 -0.4,-3.176c0,-1.747 -0.18,-3.288 -0.4,-3.424c-0.22,-0.136 -0.4,-1.036 -0.4,-2c0,-0.964 -0.18,-1.864 -0.4,-2c-0.22,-0.136 -0.4,-1.216 -0.4,-2.4c0,-1.184 -0.18,-2.264 -0.4,-2.4c-0.22,-0.136 -0.4,-0.946 -0.4,-1.8c0,-0.854 -0.18,-1.664 -0.4,-1.8c-0.22,-0.136 -0.4,-0.946 -0.4,-1.8c0,-0.854 -0.18,-1.664 -0.4,-1.8c-0.22,-0.136 -0.4,-0.69 -0.4,-1.231c0,-0.849 -0.137,-0.95 -0.995,-0.734c-0.67,0.168 -1.488,-0.045 -2.5,-0.651c-0.828,-0.496 -11.675,-6.748 -24.105,-13.895c-12.43,-7.146 -23.14,-13.309 -23.8,-13.694c-0.66,-0.386 -7.77,-4.474 -15.8,-9.086c-16.135,-9.267 -56.998,-32.784 -64.737,-37.256c-5.992,-3.463 -4.997,-3.521 -12.263,0.719m-35.3,99.102c-0.715,0.097 -1.3,0.342 -1.3,0.543c0,0.454 3.033,8.099 3.804,9.591c0.504,0.974 3.193,2.884 21.796,15.485c0.99,0.671 6.3,4.143 11.8,7.717c5.5,3.574 12.97,8.438 16.6,10.809c28.02,18.299 39.346,25.581 39.786,25.581c0.907,0 3.922,-3.588 3.471,-4.131c-0.221,-0.266 -20.112,-13.621 -44.202,-29.677c-40.411,-26.933 -45.619,-30.592 -43.541,-30.592c0.173,0 20.237,13.296 44.587,29.546c49.246,32.867 44.793,30.3 46.119,26.58c1.065,-2.984 1.225,-2.8 -7.32,-8.419c-7.251,-4.768 -27.396,-17.991 -41.8,-27.438c-3.245,-2.128 -8.465,-5.554 -11.6,-7.613c-3.135,-2.059 -10.65,-6.961 -16.7,-10.894l-11,-7.151l-4.6,-0.057c-2.53,-0.031 -5.185,0.022 -5.9,0.12m73.1,0.232c-1.105,0.608 -10.099,6.394 -24.263,15.607c-5.101,3.318 -5.01,3.085 -1.968,5.067l2.561,1.668l13.036,-8.69c7.17,-4.779 13.148,-8.577 13.284,-8.441c0.629,0.629 -0.931,1.819 -12.403,9.465c-6.736,4.489 -12.247,8.283 -12.247,8.431c0,0.148 1.282,1.122 2.85,2.165l2.85,1.895l9.65,-6.507c14.296,-9.638 14.386,-9.706 15.113,-11.437c0.354,-0.841 1.312,-3.121 2.131,-5.068c1.096,-2.605 1.37,-3.657 1.042,-3.985c-0.708,-0.708 -10.402,-0.849 -11.636,-0.17m-56.402,36.623c-5.171,3.449 -14.594,9.676 -20.94,13.839l-11.539,7.567l0.252,1.575c0.304,1.9 1.262,3.851 2.038,4.149c0.648,0.249 45.354,-29.409 45.376,-30.102c0.02,-0.602 -4.196,-3.364 -5.079,-3.328c-0.388,0.016 -4.937,2.851 -10.108,6.3m-5.638,12.992c-25.368,16.971 -23.661,15.747 -23.185,16.621c0.594,1.091 2.884,3.258 3.441,3.258c0.287,0 8.141,-4.968 17.453,-11.041c26.537,-17.305 30.331,-19.846 30.331,-20.319c0,-0.513 -4.551,-3.45 -5.298,-3.419c-0.276,0.011 -10.51,6.716 -22.742,14.9m-36.178,6.308c-7.748,4.984 -7.475,4.706 -5.552,5.665c8.773,4.373 13.047,10.269 13.645,18.82c0.306,4.385 0.177,4.335 4.185,1.622c10.217,-6.917 9.806,-6.536 8.04,-7.441c-6.365,-3.264 -9.338,-6.035 -11.896,-11.089c-0.901,-1.781 -1.804,-6.253 -1.804,-8.934c0,-2.634 -0.605,-2.51 -6.618,1.357m127.894,-3.145c-0.262,0.262 -0.476,1.144 -0.476,1.961c0,7.91 -3.98,14.413 -11.316,18.492c-1.916,1.065 -3.484,2.088 -3.484,2.272c0,0.546 12.387,8.846 12.811,8.584c0.214,-0.132 0.395,-1.355 0.403,-2.717c0.026,-4.546 0.824,-6.999 3.7,-11.375c2.844,-4.326 3.65,-5.051 8.361,-7.511c3.695,-1.931 3.843,-1.612 -2.675,-5.782c-2.86,-1.83 -5.571,-3.569 -6.024,-3.864c-0.637,-0.415 -0.932,-0.428 -1.3,-0.06m-119.291,13.816c2.399,2.894 0.762,6.064 -1.876,3.633c-0.557,-0.513 -1.249,-1.49 -1.54,-2.17c-1.319,-3.094 1.178,-4.163 3.416,-1.463m120.51,-0.8c0.461,2.107 -1.886,5.428 -3.687,5.218c-2.622,-0.306 -0.354,-5.918 2.392,-5.918c0.762,0 1.192,0.233 1.295,0.7m-131.599,4.085c-4.365,2.065 -7.236,5.453 -5.721,6.751c0.427,0.365 1.117,1.294 1.535,2.064c0.417,0.77 1.052,1.457 1.411,1.527c1.079,0.209 5.679,-2.216 7.739,-4.081c2.183,-1.976 2.192,-1.876 -0.483,-5.546c-1.637,-2.246 -1.343,-2.199 -4.481,-0.715m134.845,0.176c-0.628,0.763 -1.497,2.053 -1.932,2.866l-0.792,1.478l1.926,1.743c2.057,1.863 6.658,4.288 7.736,4.079c0.359,-0.07 0.994,-0.757 1.411,-1.527c0.418,-0.77 1.135,-1.721 1.595,-2.113c1.42,-1.211 -1.311,-4.489 -5.485,-6.582c-2.932,-1.47 -3.209,-1.467 -4.459,0.056m-147.372,8.608c-3.127,3.128 0.476,7.851 4.568,5.987c2.188,-0.997 2.551,-4.506 0.632,-6.12c-1.722,-1.449 -3.667,-1.399 -5.2,0.133m159.431,-0.686c-3.255,1.867 -1.955,7.131 1.755,7.108c2.493,-0.015 4.321,-2.196 3.867,-4.616c-0.455,-2.423 -3.437,-3.745 -5.622,-2.492m-262.377,0.68c-0.149,0.241 -1.16,0.437 -2.247,0.437c-1.087,0 -1.976,0.18 -1.976,0.4c0,0.22 -0.439,0.4 -0.976,0.4c-0.537,0 -1.088,0.18 -1.224,0.4c-0.136,0.22 -0.557,0.4 -0.935,0.4c-0.379,0 -0.948,0.36 -1.265,0.8c-0.317,0.44 -0.812,0.8 -1.099,0.8c-0.71,0 -4.101,3.436 -4.101,4.156c0,0.318 -0.225,0.652 -0.5,0.744c-0.39,0.13 -0.524,4.849 -0.61,21.405l-0.11,21.238l0.929,0.93c0.511,0.511 1.05,1.244 1.198,1.628c0.147,0.384 0.471,0.699 0.72,0.699c0.249,0 0.956,0.54 1.573,1.2c0.617,0.66 1.409,1.2 1.76,1.2c0.352,0 0.64,0.18 0.64,0.4c0,0.22 0.36,0.4 0.8,0.4c0.44,0 0.8,0.18 0.8,0.4c0,0.22 0.54,0.4 1.2,0.4c0.66,0 1.2,0.18 1.2,0.4c0,0.22 0.72,0.4 1.6,0.4c0.88,0 1.6,0.173 1.6,0.385c0,0.235 5.328,0.464 13.7,0.587c16.204,0.239 22.7,0.54 22.7,1.053c0,0.206 0.9,0.375 2,0.375c1.1,0 2,0.18 2,0.4c0,0.22 0.72,0.4 1.6,0.4c0.88,0 1.6,0.18 1.6,0.4c0,0.22 0.36,0.4 0.8,0.4c0.44,0 0.8,0.18 0.8,0.4c0,0.22 0.278,0.4 0.617,0.4c0.339,0 1.003,0.36 1.475,0.8c0.472,0.44 1.095,0.8 1.383,0.8c0.289,0 0.525,0.18 0.525,0.4c0,0.22 0.278,0.4 0.617,0.4c0.339,0 1.003,0.36 1.475,0.8c0.472,0.44 1.095,0.8 1.383,0.8c0.289,0 0.525,0.18 0.525,0.4c0,0.22 0.36,0.4 0.8,0.4c0.44,0 0.8,0.18 0.8,0.4c0,0.22 0.36,0.4 0.8,0.4c0.44,0 0.8,0.159 0.8,0.353c0,0.456 3.798,2.252 6.945,3.284c1.35,0.443 2.768,0.976 3.15,1.184c0.382,0.209 1.237,0.379 1.9,0.379c0.663,0 1.205,0.18 1.205,0.4c0,0.22 0.72,0.4 1.6,0.4c0.88,0 1.6,0.18 1.6,0.4c0,0.22 0.889,0.4 1.976,0.4c1.087,0 2.088,0.18 2.224,0.4c0.136,0.22 1.767,0.4 3.624,0.4c1.984,0 3.376,0.165 3.376,0.4c0,0.22 0.9,0.4 2,0.4l2,0l0,7.009l0,7.008l2.191,2.192c1.206,1.205 2.466,2.191 2.8,2.191c0.335,0 0.609,0.18 0.609,0.4c0,0.22 0.345,0.4 0.767,0.4c0.421,0 0.841,0.225 0.933,0.5c0.245,0.735 183.555,0.735 183.8,0c0.092,-0.275 0.44,-0.5 0.773,-0.5c0.333,0 1.398,-0.839 2.367,-1.864l1.76,-1.863l0,-7.737l0,-7.736l2,0c1.1,0 2,-0.18 2,-0.4c0,-0.235 1.392,-0.4 3.376,-0.4c1.857,0 3.488,-0.18 3.624,-0.4c0.136,-0.22 1.137,-0.4 2.224,-0.4c1.087,0 1.976,-0.18 1.976,-0.4c0,-0.22 0.72,-0.4 1.6,-0.4c0.88,0 1.6,-0.18 1.6,-0.4c0,-0.22 0.542,-0.4 1.205,-0.4c0.663,0 1.518,-0.17 1.9,-0.379c0.382,-0.208 1.8,-0.741 3.15,-1.184c3.147,-1.032 6.945,-2.828 6.945,-3.284c0,-0.194 0.36,-0.353 0.8,-0.353c0.44,0 0.8,-0.18 0.8,-0.4c0,-0.22 0.36,-0.4 0.8,-0.4c0.44,0 0.8,-0.18 0.8,-0.4c0,-0.22 0.236,-0.4 0.525,-0.4c0.288,0 0.911,-0.36 1.383,-0.8c0.472,-0.44 1.136,-0.8 1.475,-0.8c0.339,0 0.617,-0.18 0.617,-0.4c0,-0.22 0.236,-0.4 0.525,-0.4c0.288,0 0.911,-0.36 1.383,-0.8c0.472,-0.44 1.136,-0.8 1.475,-0.8c0.339,0 0.617,-0.18 0.617,-0.4c0,-0.22 0.36,-0.4 0.8,-0.4c0.44,0 0.8,-0.18 0.8,-0.4c0,-0.22 0.72,-0.4 1.6,-0.4c0.88,0 1.6,-0.18 1.6,-0.4c0,-0.22 0.9,-0.4 2,-0.4c1.1,0 2,-0.169 2,-0.375c0,-0.513 6.496,-0.814 22.7,-1.053c8.372,-0.123 13.7,-0.352 13.7,-0.587c0,-0.212 0.72,-0.385 1.6,-0.385c0.88,0 1.6,-0.18 1.6,-0.4c0,-0.22 0.54,-0.4 1.2,-0.4c0.66,0 1.2,-0.18 1.2,-0.4c0,-0.22 0.36,-0.4 0.8,-0.4c0.44,0 0.8,-0.18 0.8,-0.4c0,-0.22 0.288,-0.4 0.64,-0.4c0.351,0 1.143,-0.54 1.76,-1.2c0.617,-0.66 1.324,-1.2 1.573,-1.2c0.249,0 0.573,-0.315 0.72,-0.699c0.148,-0.384 0.687,-1.117 1.198,-1.628l0.929,-0.93l-0.11,-21.238c-0.086,-16.556 -0.22,-21.275 -0.61,-21.405c-0.275,-0.092 -0.5,-0.426 -0.5,-0.744c0,-0.72 -3.391,-4.156 -4.101,-4.156c-0.287,0 -0.782,-0.36 -1.099,-0.8c-0.317,-0.44 -0.886,-0.8 -1.265,-0.8c-0.378,0 -0.799,-0.18 -0.935,-0.4c-0.136,-0.22 -0.687,-0.4 -1.224,-0.4c-0.537,0 -0.976,-0.18 -0.976,-0.4c0,-0.22 -0.864,-0.4 -1.92,-0.4c-1.056,0 -2.12,-0.2 -2.365,-0.445c-0.279,-0.279 -1.095,-0.347 -2.18,-0.182c-0.954,0.144 -2.68,0.362 -3.835,0.482c-1.155,0.12 -2.1,0.382 -2.1,0.582c0,0.2 -0.54,0.363 -1.2,0.363c-0.66,0 -1.2,0.18 -1.2,0.4c0,0.22 -0.36,0.4 -0.8,0.4c-0.44,0 -0.8,0.18 -0.8,0.4c0,0.22 -0.291,0.4 -0.646,0.4c-0.747,0 -3.354,2.703 -3.354,3.478c0,0.287 -0.18,0.522 -0.4,0.522c-0.22,0 -0.4,0.345 -0.4,0.767c0,0.421 -0.218,0.839 -0.485,0.928c-0.665,0.222 -0.646,8.795 0.02,9.017c0.67,0.223 0.638,8.249 -0.035,8.797c-0.275,0.224 -3.11,0.503 -6.3,0.621c-7.37,0.273 -15.336,0.924 -17.4,1.422c-0.88,0.213 -2.95,0.595 -4.6,0.851c-1.65,0.255 -3.313,0.628 -3.695,0.83c-0.382,0.202 -1.046,0.367 -1.476,0.367c-0.43,0 -0.893,0.18 -1.029,0.4c-0.136,0.22 -0.563,0.4 -0.948,0.4c-0.386,0 -1.447,0.36 -2.358,0.8c-0.91,0.44 -1.934,0.8 -2.275,0.8c-0.34,0 -0.619,0.18 -0.619,0.4c0,0.22 -0.36,0.4 -0.8,0.4c-0.44,0 -0.8,0.18 -0.8,0.4c0,0.22 -0.36,0.4 -0.8,0.4c-0.44,0 -0.8,0.18 -0.8,0.4c0,0.22 -0.234,0.4 -0.52,0.4c-0.736,0 -2.673,0.941 -2.677,1.3c-0.002,0.165 -0.466,0.3 -1.032,0.3c-0.565,0 -1.307,0.279 -1.648,0.62c-0.341,0.34 -1.138,0.723 -1.771,0.85c-0.634,0.126 -1.152,0.387 -1.152,0.58c0,0.193 -0.36,0.35 -0.8,0.35c-0.44,0 -0.8,0.147 -0.8,0.328c0,0.18 -0.9,0.572 -2,0.872c-1.1,0.3 -2,0.692 -2,0.872c0,0.181 -0.54,0.328 -1.2,0.328c-0.66,0 -1.2,0.18 -1.2,0.4c0,0.22 -0.72,0.4 -1.6,0.4c-0.88,0 -1.6,0.18 -1.6,0.4c0,0.244 -1.867,0.4 -4.8,0.4c-2.933,0 -4.8,-0.156 -4.8,-0.4c0,-0.253 -2.867,-0.4 -7.8,-0.4c-4.933,0 -7.8,0.147 -7.8,0.4c0,0.22 -0.619,0.4 -1.376,0.4c-0.757,0 -1.488,0.18 -1.624,0.4c-0.136,0.22 -0.777,0.4 -1.424,0.4c-0.647,0 -1.176,0.18 -1.176,0.4c0,0.22 -0.36,0.4 -0.8,0.4c-0.44,0 -0.8,0.18 -0.8,0.4c0,0.22 -0.276,0.4 -0.613,0.4c-0.796,0 -3.387,2.591 -3.387,3.387c0,0.337 -0.18,0.613 -0.4,0.613c-0.251,0 -0.4,2.533 -0.4,6.8l0,6.8l-66.4,0l-66.4,0l0,-6.8c0,-4.267 -0.149,-6.8 -0.4,-6.8c-0.22,0 -0.4,-0.276 -0.4,-0.613c0,-0.796 -2.591,-3.387 -3.387,-3.387c-0.337,0 -0.613,-0.18 -0.613,-0.4c0,-0.22 -0.36,-0.4 -0.8,-0.4c-0.44,0 -0.8,-0.18 -0.8,-0.4c0,-0.22 -0.529,-0.4 -1.176,-0.4c-0.647,0 -1.288,-0.18 -1.424,-0.4c-0.136,-0.22 -0.867,-0.4 -1.624,-0.4c-0.757,0 -1.376,-0.18 -1.376,-0.4c0,-0.253 -2.867,-0.4 -7.8,-0.4c-4.933,0 -7.8,0.147 -7.8,0.4c0,0.244 -1.867,0.4 -4.8,0.4c-2.933,0 -4.8,-0.156 -4.8,-0.4c0,-0.22 -0.72,-0.4 -1.6,-0.4c-0.88,0 -1.6,-0.18 -1.6,-0.4c0,-0.22 -0.54,-0.4 -1.2,-0.4c-0.66,0 -1.2,-0.147 -1.2,-0.328c0,-0.18 -0.9,-0.572 -2,-0.872c-1.1,-0.3 -2,-0.692 -2,-0.872c0,-0.181 -0.36,-0.328 -0.8,-0.328c-0.44,0 -0.8,-0.157 -0.8,-0.35c0,-0.193 -0.518,-0.454 -1.152,-0.58c-0.633,-0.127 -1.43,-0.51 -1.771,-0.85c-0.341,-0.341 -1.083,-0.62 -1.648,-0.62c-0.566,0 -1.03,-0.135 -1.032,-0.3c-0.004,-0.359 -1.941,-1.3 -2.677,-1.3c-0.286,0 -0.52,-0.18 -0.52,-0.4c0,-0.22 -0.36,-0.4 -0.8,-0.4c-0.44,0 -0.8,-0.18 -0.8,-0.4c0,-0.22 -0.36,-0.4 -0.8,-0.4c-0.44,0 -0.8,-0.18 -0.8,-0.4c0,-0.22 -0.279,-0.4 -0.619,-0.4c-0.341,0 -1.365,-0.36 -2.275,-0.8c-0.911,-0.44 -1.972,-0.8 -2.358,-0.8c-0.385,0 -0.812,-0.18 -0.948,-0.4c-0.136,-0.22 -0.599,-0.4 -1.029,-0.4c-0.43,0 -1.094,-0.165 -1.476,-0.367c-0.382,-0.202 -2.045,-0.575 -3.695,-0.83c-1.65,-0.256 -3.72,-0.638 -4.6,-0.851c-2.064,-0.498 -10.03,-1.149 -17.4,-1.422c-3.19,-0.118 -6.025,-0.397 -6.3,-0.621c-0.673,-0.548 -0.705,-8.574 -0.035,-8.797c0.666,-0.222 0.685,-8.795 0.02,-9.017c-0.267,-0.089 -0.485,-0.507 -0.485,-0.928c0,-0.422 -0.18,-0.767 -0.4,-0.767c-0.22,0 -0.4,-0.235 -0.4,-0.522c0,-0.775 -2.607,-3.478 -3.354,-3.478c-0.355,0 -0.646,-0.18 -0.646,-0.4c0,-0.22 -0.36,-0.4 -0.8,-0.4c-0.44,0 -0.8,-0.18 -0.8,-0.4c0,-0.22 -0.54,-0.4 -1.2,-0.4c-0.66,0 -1.2,-0.163 -1.2,-0.363c0,-0.2 -0.945,-0.464 -2.1,-0.587c-1.155,-0.123 -2.934,-0.336 -3.954,-0.473c-1.169,-0.158 -1.953,-0.089 -2.123,0.186m6.239,6.206c7.436,1.778 8.934,11.296 1.935,12.29l-0.997,0.141l0,-5.181l0,-5.181l-1.6,-0.352c-8.397,-1.842 -13.758,2.319 -13.191,10.24c0.315,4.402 0.006,4.815 -1.709,2.284c-1.458,-2.152 -1.402,-6.86 0.114,-9.461c2.435,-4.178 9.204,-6.273 15.448,-4.78m365.853,0.003c4.452,1.186 7.899,4.504 8.131,7.828c0.222,3.174 -0.064,5.108 -0.946,6.41c-1.715,2.531 -2.024,2.118 -1.709,-2.284c0.565,-7.898 -4.814,-12.073 -13.191,-10.239l-1.6,0.351l0,5.181l0,5.181l-0.997,-0.141c-4.916,-0.699 -5.971,-8.415 -1.51,-11.05c2.819,-1.665 8.126,-2.22 11.822,-1.237m-369.595,8.82c0.191,4.411 0.014,4.763 -2.235,4.454c-4.37,-0.599 -5.128,-5.854 -1.005,-6.967c2.898,-0.783 3.105,-0.622 3.24,2.513m367.929,-2.538c4.271,1.075 3.866,6.32 -0.539,6.98c-2.291,0.344 -2.496,0.027 -2.504,-3.867c-0.008,-3.907 -0.028,-3.886 3.043,-3.113m-376.963,16.126c3.675,2.018 6.244,2.541 13.804,2.809c24.245,0.861 37.24,2.531 45.659,5.868c3.079,1.22 4.264,1.756 12.251,5.545c11.891,5.641 17.592,6.925 25.713,5.79c13.144,-1.837 22.487,0.411 22.487,5.41c0,4.283 -3.1,4.962 -9.153,2.002c-7.204,-3.523 -10.168,-4.189 -13.215,-2.97c-2.695,1.078 -2.802,1.475 -2.924,10.839l-0.108,8.327l-1.553,0.127c-8.631,0.708 -22.401,-3.492 -33.833,-10.319c-11.198,-6.687 -13.853,-7.111 -50.814,-8.12c-4.382,-0.12 -7.739,-1.355 -9.987,-3.675l-1.277,-1.318l-0.23,-10.847c-0.166,-7.875 -0.106,-10.848 0.219,-10.848c0.246,0 1.579,0.621 2.961,1.38m386.208,9.468l-0.23,10.847l-1.277,1.318c-2.196,2.266 -5.616,3.55 -9.787,3.675c-38.171,1.14 -40.096,1.449 -51.214,8.219c-10.871,6.62 -22.811,10.293 -33.461,10.293l-1.925,0l0,-8.22c0,-9.411 -0.168,-10.08 -2.793,-11.13c-3.089,-1.237 -6.022,-0.583 -13.254,2.954c-6.053,2.96 -9.153,2.281 -9.153,-2.002c0,-4.999 9.343,-7.247 22.487,-5.41c8.121,1.135 13.822,-0.149 25.713,-5.79c7.987,-3.789 9.172,-4.325 12.251,-5.545c8.419,-3.337 21.414,-5.007 45.659,-5.868c7.555,-0.268 10.174,-0.8 13.69,-2.781c3.815,-2.15 3.555,-2.896 3.294,9.44m-15.194,-3.749c-6.104,0.15 -6.031,0.004 -2.274,4.511c1.554,1.864 2.978,3.663 3.164,3.997c0.248,0.444 -0.506,1.626 -2.807,4.4c-1.73,2.086 -3.154,3.928 -3.164,4.093c-0.01,0.165 2.955,0.3 6.591,0.3c7.484,0 6.984,0.238 7.56,-3.6l0.27,-1.8l-0.962,1.055c-1.517,1.663 -2.394,1.945 -6.052,1.945c-4.126,0 -4.127,-0.005 -1.026,-3.8c2.909,-3.561 2.908,-3.048 0.02,-6.479c-2.795,-3.321 -2.795,-3.321 1.211,-3.321c2.968,0 3.141,0.052 4.133,1.231l1.036,1.23l0,-1.788c0,-1.833 -0.479,-2.375 -1.933,-2.186c-0.367,0.048 -2.962,0.143 -5.767,0.212m-363.746,0.866c-3.71,1.685 -5.428,6.257 -3.938,10.479c2.932,8.312 15.337,6.178 15.373,-2.644c0.026,-6.431 -5.775,-10.405 -11.435,-7.835m18.186,-0.003c-1.162,0.914 -1.876,3.462 -1.167,4.171c0.304,0.304 0.619,-0.058 1.088,-1.252c0.688,-1.752 1.829,-2.231 2.859,-1.201c1.478,1.478 0.205,13.005 -1.457,13.197c-2.769,0.32 -1.071,1.323 2.437,1.439c3.345,0.11 5.339,-0.787 2.641,-1.188c-2.52,-0.375 -1.648,-12.532 0.958,-13.359c1.374,-0.437 2.225,0.197 2.507,1.868c0.334,1.976 1.146,1.869 1.319,-0.174c0.244,-2.892 -2.726,-4.721 -4.895,-3.015l-1.077,0.847l-0.896,-0.841c-1.364,-1.282 -3.067,-1.476 -4.317,-0.492m324.932,1.73c-1.597,4.069 -4.872,13.12 -4.872,13.463c0,0.191 -0.27,0.571 -0.6,0.845c-1.046,0.868 -0.658,1.2 1.4,1.2c1.1,0 2,-0.18 2,-0.4c0,-0.22 -0.27,-0.4 -0.6,-0.4c-0.717,0 -0.772,-1.135 -0.153,-3.2l0.447,-1.492l2.776,-0.233c3.934,-0.329 5.592,1.111 4.901,4.258l-0.257,1.17l2.343,-0.29c2.423,-0.3 3.124,-0.587 2.221,-0.908c-0.287,-0.103 -1.208,-1.653 -2.047,-3.446c-6.302,-13.476 -6.376,-13.58 -7.559,-10.567m-337.118,-0.457c4.683,3.684 2.819,13.565 -2.558,13.565c-4.941,0 -7.049,-9.955 -2.858,-13.498c1.403,-1.186 3.953,-1.218 5.416,-0.067m317.145,0.653c-2.033,0.693 -1.978,0.498 -2.269,8.074c-0.121,3.169 -0.3,5.842 -0.397,5.939c-0.098,0.097 -2.299,-1.731 -4.893,-4.062c-5.066,-4.553 -5.333,-4.672 -7.628,-3.401c-2.144,1.188 -2.566,1.707 -1.188,1.463c1.419,-0.251 1.581,-0.002 4.443,6.829c2.466,5.886 2.543,6.26 1.533,7.392c-0.795,0.891 -0.274,0.811 2.631,-0.402l1.4,-0.585l-1.054,-0.868c-1.113,-0.915 -4.851,-9.262 -4.443,-9.922c0.123,-0.199 2.443,1.622 5.156,4.046c2.713,2.425 5.13,4.409 5.372,4.409c0.3,0 0.438,-2.129 0.438,-6.776c0,-8.987 0.168,-9.051 3.18,-1.202c1.819,4.741 1.916,5.366 0.92,5.946c-1.587,0.924 1.8,0.23 5.1,-1.046c0.436,-0.169 0.331,-0.303 -0.381,-0.491c-1.649,-0.434 -7.25,-14.887 -5.939,-15.324c0.271,-0.091 0.315,-0.256 0.1,-0.38c-0.209,-0.12 -1.145,0.042 -2.081,0.361m-284.876,4.812c-1.407,1.925 -3.534,4.813 -4.726,6.418c-2.463,3.314 -2.467,3.869 -0.031,4.22c0.954,0.137 2.544,0.409 3.534,0.604c8.276,1.634 7.827,1.775 6.98,-2.2c-0.369,-1.728 -0.993,-4.672 -1.387,-6.542c-1.54,-7.307 -1.059,-7.031 -4.37,-2.5m306.948,-0.052c1.484,3.242 1.439,3.352 -1.371,3.352c-1.32,0 -2.4,-0.045 -2.4,-0.1c0,-0.055 0.368,-1.09 0.816,-2.3c0.449,-1.21 0.893,-2.425 0.987,-2.7c0.344,-1.001 0.96,-0.453 1.968,1.748m-305.23,1.652c0.765,3.486 1.859,8.641 1.859,8.761c0,0.285 -2.409,0.125 -4.469,-0.298c-1.172,-0.24 -2.548,-0.517 -3.058,-0.614c-1.292,-0.248 -1.074,-0.782 2.104,-5.14c3.052,-4.185 3.213,-4.308 3.564,-2.709m14.265,-0.794c0.003,0.162 0.163,0.541 0.354,0.842c0.325,0.514 -0.116,1.74 -3.763,10.452c-0.745,1.778 -1.139,2.246 -2.059,2.438c-1.114,0.234 -1.096,0.258 0.862,1.15c6.923,3.153 9.465,4.124 9.768,3.73c0.134,-0.175 0.665,-0.8 1.18,-1.388c1.283,-1.468 0.749,-2.196 -0.801,-1.092c-2.061,1.467 -7.434,-0.321 -7.023,-2.338c0.323,-1.586 1.852,-4.9 2.262,-4.9c0.955,0 4.06,1.668 4.261,2.289c0.126,0.391 0.325,0.981 0.44,1.311c0.135,0.385 0.544,-0.118 1.137,-1.4c1.245,-2.688 1.241,-3.192 -0.018,-2.367c-1.069,0.7 -4.871,-0.216 -5.276,-1.272c-0.291,-0.758 1.814,-5.069 2.367,-4.849c0.277,0.11 1.313,0.513 2.303,0.895c1.998,0.771 3.344,2.041 3.03,2.859c-0.441,1.149 0.904,0.459 1.389,-0.712c0.609,-1.47 0.561,-1.51 -3.819,-3.294c-5.687,-2.316 -6.6,-2.642 -6.594,-2.354m243.324,6.249c-1.765,0.477 -2.67,1.045 -1.664,1.045c1.188,0 3.111,5.791 2.208,6.651c-2.197,2.09 -7.474,1.821 -7.474,-0.381c0,-0.427 -0.215,-1.495 -0.478,-2.372c-0.426,-1.421 -0.396,-1.654 0.271,-2.142c1.222,-0.894 0.366,-1.121 -2.091,-0.554c-3.028,0.698 -3.082,0.741 -2.008,1.586c0.631,0.496 1.095,1.528 1.469,3.269c0.301,1.398 0.973,4.249 1.492,6.334c1.164,4.668 1.166,5 0.045,5.831c-1.117,0.828 0.432,0.633 4.1,-0.516c2.068,-0.647 2.128,-0.701 1,-0.898c-1.193,-0.208 -2.476,-3.317 -2.573,-6.232c-0.04,-1.224 6.835,-2.852 7.257,-1.718c0.997,2.681 1.231,5.952 0.487,6.792l-0.771,0.87l1.2,-0.277c3.576,-0.825 5.598,-1.607 4.523,-1.749c-1.27,-0.168 -1.324,-0.309 -3.271,-8.459c-1.306,-5.468 -1.428,-6.835 -0.609,-6.835c0.196,0 0.357,-0.18 0.357,-0.4c0,-0.494 -1.275,-0.437 -3.47,0.155m-227.73,1.371c0,0.235 0.18,0.538 0.4,0.674c0.498,0.308 0.517,2.106 0.038,3.64c-0.199,0.638 -0.776,3.021 -1.283,5.296c-0.706,3.172 -1.137,4.307 -1.847,4.865l-0.927,0.729l2.068,0.443c2.271,0.487 2.684,0.402 1.761,-0.365c-0.827,-0.686 0.875,-10.808 1.817,-10.808c0.157,0 1.782,3.063 3.611,6.806c3.915,8.011 3.926,8.017 5.087,2.594c1.455,-6.803 2.286,-9.651 2.983,-10.227c0.723,-0.597 0.685,-0.648 -0.821,-1.1c-2.29,-0.686 -2.745,-0.621 -1.935,0.274c0.696,0.769 0.267,4.336 -1.003,8.353c-0.544,1.719 -0.784,1.639 -1.831,-0.607c-0.486,-1.041 -1.679,-3.608 -2.651,-5.703c-0.973,-2.096 -2.033,-4.03 -2.356,-4.298c-0.823,-0.683 -3.111,-1.099 -3.111,-0.566m26.259,15.654c7.077,3.054 0.376,2.854 91.741,2.731l81.8,-0.111l1.918,-0.885c1.054,-0.487 2.432,-1.252 3.061,-1.7c2.062,-1.468 2.021,-1.717 2.021,12.339l0,13.154l-0.9,0.576c-2.762,1.768 -0.007,1.716 -90.5,1.716l-85.6,0l-2.946,-0.97c-1.879,-0.619 -3.457,-1.453 -4.358,-2.303l-1.413,-1.332l0.259,-3.058c0.142,-1.682 0.258,-7.261 0.258,-12.397c0,-7.206 0.114,-9.34 0.5,-9.339c0.275,0 2.146,0.711 4.159,1.579m10.541,8.019c-1.108,2.173 -7.2,15.244 -7.2,15.45c0,0.083 3.432,0.151 7.627,0.151l7.627,0l-0.285,-0.9c-0.365,-1.15 -6.135,-15.111 -6.56,-15.871c-0.236,-0.421 -0.553,-0.114 -1.209,1.17m13.2,-1.315c1.897,0.697 2,1.107 1.995,7.878c-0.007,7.268 -0.117,7.979 -1.33,8.565c-0.678,0.329 -0.134,0.425 2.524,0.446c3.178,0.025 3.334,-0.012 2.5,-0.596c-0.864,-0.605 -0.889,-0.83 -0.889,-7.987l0,-7.364l1.1,-0.597c1.039,-0.564 0.889,-0.596 -2.7,-0.581c-2.09,0.008 -3.53,0.114 -3.2,0.236m19.411,1.416c-0.372,0.935 -0.921,2.24 -1.22,2.9c-0.299,0.66 -1.547,3.54 -2.773,6.4c-1.225,2.86 -2.406,5.26 -2.623,5.333c-1.117,0.377 -0.142,0.865 1.705,0.854c1.921,-0.011 2.035,-0.062 1.334,-0.592c-0.705,-0.534 -0.724,-0.718 -0.228,-2.288c0.844,-2.677 0.968,-2.752 4.344,-2.623l3.026,0.116l0.782,1.891c0.759,1.834 0.76,1.915 0.05,2.7c-0.728,0.805 -0.717,0.809 2.142,0.809l2.874,0l-0.796,-1.1c-0.438,-0.605 -1.81,-3.53 -3.05,-6.5c-4.513,-10.811 -4.447,-10.717 -5.567,-7.9m14.989,-1.487c0,0.118 1.451,2.117 3.224,4.443c2.849,3.737 3.159,4.305 2.666,4.886c-0.307,0.362 -1.758,2.052 -3.224,3.756c-3.532,4.105 -3.737,3.902 3.944,3.902l6.61,0l0.39,-1.026c0.214,-0.564 0.39,-1.663 0.39,-2.442l0,-1.417l-1.16,1.243c-1.151,1.231 -1.196,1.242 -5.215,1.242c-4.709,0 -4.655,0.204 -1.06,-4c2.715,-3.175 2.713,-2.894 0.059,-6.224c-2.594,-3.256 -2.559,-3.376 0.986,-3.376c2.519,0 2.887,0.109 4.176,1.241l1.414,1.242l0,-1.842l0,-1.841l-6.6,0c-3.63,0 -6.6,0.096 -6.6,0.213m20.942,0.768l1.058,0.981l-0.006,6.719c-0.006,6.96 -0.063,7.286 -1.394,8.041c-0.646,0.366 -0.157,0.456 2.544,0.466c3.281,0.012 3.328,-0.002 2.456,-0.707c-0.854,-0.692 -0.89,-0.998 -0.944,-7.9l-0.056,-7.181l4.2,0l4.2,0l0.109,7.064l0.109,7.064l-1.063,0.836l-1.063,0.836l3.308,0l3.308,0l-1.054,-0.829l-1.054,-0.829l0,-6.695c0,-6.954 0.109,-7.46 1.8,-8.385c0.599,-0.328 -1.502,-0.441 -8.358,-0.45l-9.159,-0.012l1.059,0.981m28.696,2.329c-3.527,8.522 -5.321,12.519 -5.915,13.175c-0.613,0.678 -0.539,0.715 1.438,0.715c2.023,0 2.067,-0.024 1.509,-0.822c-0.505,-0.72 -0.493,-1.053 0.095,-2.7l0.67,-1.878l2.983,-0.12c2.637,-0.106 3.061,-0.021 3.669,0.729c1.111,1.371 1.371,3.613 0.493,4.255c-0.635,0.465 -0.313,0.536 2.419,0.536c3.135,0 3.147,-0.004 2.322,-0.773c-0.457,-0.425 -2.32,-4.295 -4.14,-8.6c-1.821,-4.305 -3.506,-7.822 -3.746,-7.817c-0.239,0.006 -1.048,1.491 -1.797,3.3m14.362,-3.131c0,0.099 1.44,1.987 3.2,4.197c3.867,4.853 3.858,4.093 0.1,8.46c-1.705,1.981 -3.16,3.773 -3.233,3.983c-0.231,0.66 13.405,0.492 13.658,-0.168c0.531,-1.384 0.747,-4.251 0.32,-4.251c-0.245,0 -0.445,0.146 -0.445,0.325c0,1.461 -1.661,2.075 -5.616,2.075c-4.758,0 -4.764,-0.013 -1.584,-3.6c2.907,-3.279 2.916,-3.436 0.384,-6.658c-2.428,-3.09 -2.332,-3.342 1.279,-3.342c2.641,0 2.889,0.078 3.988,1.255c1.415,1.514 1.658,1.366 1.311,-0.802l-0.264,-1.653l-6.549,0c-3.602,0 -6.549,0.081 -6.549,0.179m22.5,0.444l1.1,0.603l0,7.364c0,7.157 -0.025,7.382 -0.889,7.987c-0.82,0.574 -0.367,0.623 5.81,0.623c7.451,0 6.873,0.22 7.628,-2.9c0.356,-1.472 -0.286,-1.407 -1.695,0.17c-0.99,1.108 -1.448,1.293 -3.58,1.447c-4.394,0.318 -4.525,0.21 -4.39,-3.629l0.116,-3.288l2.29,-0.12c2.437,-0.127 3.91,0.376 3.91,1.334c0,0.322 0.18,0.586 0.4,0.586c0.226,0 0.4,-1.133 0.4,-2.6c0,-1.467 -0.174,-2.6 -0.4,-2.6c-0.22,0 -0.4,0.264 -0.4,0.586c0,0.958 -1.473,1.461 -3.91,1.334l-2.29,-0.12l-0.12,-2.764c-0.141,-3.267 0.004,-3.421 3.246,-3.43c2.7,-0.007 3.637,0.395 4.436,1.904c0.702,1.327 1.171,0.564 0.966,-1.572l-0.128,-1.338l-6.8,-0.09c-6.249,-0.082 -6.711,-0.04 -5.7,0.513m21.6,0.006l1.1,0.597l0,7.364c0,7.157 -0.025,7.382 -0.889,7.987c-0.837,0.586 -0.703,0.623 2.275,0.623l3.165,0l-0.876,-0.816c-0.835,-0.778 -0.875,-1.131 -0.875,-7.771l0,-6.955l1.054,-0.829l1.054,-0.829l-3.554,0.016c-3.38,0.015 -3.5,0.045 -2.454,0.613m-153.34,9.264c2.761,6.623 2.968,6.155 -2.66,6.02c-5.55,-0.133 -5.346,0.351 -2.449,-5.821c1.871,-3.987 2.716,-5.469 2.966,-5.202c0.056,0.061 1.02,2.312 2.143,5.003m31.842,-3.193c0.391,1.045 0.881,2.117 1.089,2.382c0.682,0.871 -0.103,1.318 -2.315,1.318c-2.516,0 -2.534,-0.045 -1.278,-3.284c1.09,-2.812 1.577,-2.893 2.504,-0.416m65.633,0.664c1.164,2.861 1.068,3.036 -1.659,3.036c-2.413,0 -2.448,-0.052 -1.528,-2.251c0.356,-0.852 0.807,-1.969 1.002,-2.482c0.525,-1.379 1.122,-0.915 2.185,1.697" id="svg_5"/>
  <path fill-rule="evenodd" fill="url(#coatBlueEnamel)" filter="url(#coatSoftDepth)" d="m310.80002,167.7162c0,0.66 -0.18,1.2 -0.4,1.2c-0.22,0 -0.4,0.36 -0.4,0.8c0,0.44 -0.18,0.8 -0.4,0.8c-0.22,0 -0.4,0.36 -0.4,0.8c0,0.44 -0.18,0.8 -0.4,0.8c-0.22,0 -0.4,0.32 -0.4,0.712c0,0.391 -0.36,0.971 -0.8,1.288c-0.44,0.317 -0.8,0.897 -0.8,1.288c0,0.392 -0.18,0.712 -0.4,0.712c-0.22,0 -0.4,0.272 -0.4,0.604c0,0.332 -0.54,1.168 -1.2,1.859c-0.66,0.691 -1.2,1.427 -1.2,1.636c0,0.209 -0.54,0.884 -1.2,1.501c-0.66,0.617 -1.2,1.23 -1.2,1.364c0,0.389 -10.755,11.036 -11.148,11.036c-0.196,0 -1.097,0.72 -2.004,1.6c-0.907,0.88 -1.802,1.6 -1.989,1.6c-0.187,0 -0.865,0.495 -1.507,1.1c-0.641,0.605 -1.658,1.355 -2.259,1.668c-0.601,0.312 -1.093,0.717 -1.093,0.9c0,0.182 -0.236,0.332 -0.525,0.332c-0.288,0 -0.873,0.315 -1.3,0.7c-0.426,0.385 -1.315,0.969 -1.975,1.297c-0.66,0.329 -1.491,0.914 -1.847,1.3c-0.356,0.387 -0.941,0.703 -1.3,0.703c-0.359,0 -0.653,0.18 -0.653,0.4c0,0.22 -0.36,0.4 -0.8,0.4c-0.44,0 -0.8,0.18 -0.8,0.4c0,0.22 -0.36,0.4 -0.8,0.4c-0.44,0 -0.8,0.18 -0.8,0.4c0,0.22 -0.36,0.4 -0.8,0.4c-0.44,0 -0.8,0.18 -0.8,0.4c0,0.22 -0.36,0.4 -0.8,0.4c-0.44,0 -0.8,0.18 -0.8,0.4c0,0.22 -0.36,0.4 -0.8,0.4c-0.44,0 -0.8,0.18 -0.8,0.4c0,0.22 -0.36,0.4 -0.8,0.4c-0.44,0 -0.8,0.18 -0.8,0.4c0,0.22 -0.54,0.4 -1.2,0.4c-0.66,0 -1.2,0.18 -1.2,0.4c0,0.22 -0.36,0.4 -0.8,0.4c-0.44,0 -0.8,0.18 -0.8,0.4c0,0.22 -0.529,0.4 -1.176,0.4c-0.647,0 -1.288,0.18 -1.424,0.4c-0.136,0.22 -0.687,0.4 -1.224,0.4c-0.537,0 -0.976,0.18 -0.976,0.4c0,0.22 -0.63,0.4 -1.4,0.4c-0.77,0 -1.4,0.18 -1.4,0.4c0,0.22 -0.45,0.4 -1,0.4c-0.844,0 -1,0.187 -1,1.2c0,0.933 0.178,1.2 0.8,1.2c0.44,0 0.8,0.15 0.8,0.332c0,0.183 0.493,0.588 1.095,0.9c1.053,0.546 4.505,3.728 4.505,4.153c0,0.249 1.072,1.576 2.3,2.847c0.495,0.512 0.9,1.12 0.9,1.35c0,0.23 0.18,0.418 0.4,0.418c0.22,0 0.4,0.32 0.4,0.712c0,0.391 0.36,0.971 0.8,1.288c0.44,0.317 0.8,0.897 0.8,1.288c0,0.392 0.18,0.712 0.4,0.712c0.22,0 0.4,0.36 0.4,0.8c0,0.44 0.18,0.8 0.4,0.8c0.22,0 0.4,0.36 0.4,0.8c0,0.44 0.18,0.8 0.4,0.8c0.22,0 0.4,0.54 0.4,1.2c0,0.66 0.18,1.2 0.4,1.2c0.22,0 0.4,0.36 0.4,0.8c0,0.44 0.18,0.8 0.4,0.8c0.22,0 0.4,0.54 0.4,1.2c0,0.66 0.18,1.2 0.4,1.2c0.22,0 0.4,0.54 0.4,1.2c0,0.66 0.18,1.2 0.4,1.2c0.22,0 0.4,0.54 0.4,1.2c0,0.66 0.18,1.2 0.4,1.2c0.22,0 0.4,0.9 0.4,2c0,1.1 0.18,2 0.4,2c0.22,0 0.4,0.72 0.4,1.6c0,0.88 0.18,1.6 0.4,1.6c0.229,0 0.4,1.2 0.4,2.8c0,1.6 0.171,2.8 0.4,2.8c0.24,0 0.4,1.6 0.4,4c0,2.4 0.16,4 0.4,4c0.246,0 0.4,2 0.4,5.2c0,3.2 -0.154,5.2 -0.4,5.2c-0.242,0 -0.4,1.733 -0.4,4.4c0,2.667 -0.158,4.4 -0.4,4.4c-0.235,0 -0.4,1.4 -0.4,3.4c0,2 -0.165,3.4 -0.4,3.4c-0.222,0 -0.4,1.067 -0.4,2.4c0,1.333 -0.178,2.4 -0.4,2.4c-0.222,0 -0.4,1.059 -0.4,2.376c0,1.307 -0.18,2.488 -0.4,2.624c-0.22,0.136 -0.4,1.047 -0.4,2.024c0,0.977 -0.18,1.776 -0.4,1.776c-0.22,0 -0.4,0.889 -0.4,1.976c0,1.087 -0.18,2.088 -0.4,2.224c-0.22,0.136 -0.4,1.047 -0.4,2.024c0,0.977 -0.18,1.776 -0.4,1.776c-0.22,0 -0.4,0.72 -0.4,1.6c0,0.88 -0.18,1.6 -0.4,1.6c-0.222,0 -0.4,1.067 -0.4,2.4c0,1.333 -0.178,2.4 -0.4,2.4c-0.22,0 -0.4,0.72 -0.4,1.6c0,0.88 -0.18,1.6 -0.4,1.6c-0.22,0 -0.4,0.54 -0.4,1.2c0,2.059 -2.402,3.276 27.6,-13.991c7.37,-4.242 14.21,-8.16 15.2,-8.707c0.99,-0.547 2.61,-1.495 3.6,-2.106c0.99,-0.611 8.1,-4.711 15.8,-9.11c7.7,-4.4 16.25,-9.304 19,-10.898c2.75,-1.594 12.2,-7.036 21,-12.094c8.8,-5.058 16.585,-9.533 17.3,-9.945c0.715,-0.412 1.93,-1.109 2.7,-1.549c0.77,-0.44 1.985,-1.138 2.7,-1.55c0.715,-0.413 3.522,-2.033 6.237,-3.6c5.859,-3.382 4.499,-3.257 8.731,-0.799c1.943,1.129 4.117,2.389 4.832,2.8c0.715,0.412 1.885,1.086 2.6,1.498c4.886,2.814 44.379,25.522 58.7,33.752c9.57,5.5 17.94,10.315 18.6,10.7c2.271,1.324 28.014,16.124 36.976,21.257c10.325,5.915 9.624,5.671 9.624,3.342c0,-0.99 -0.18,-1.8 -0.4,-1.8c-0.222,0 -0.4,-1.067 -0.4,-2.4c0,-1.333 -0.178,-2.4 -0.4,-2.4c-0.22,0 -0.4,-0.72 -0.4,-1.6c0,-0.88 -0.18,-1.6 -0.4,-1.6c-0.22,0 -0.4,-0.9 -0.4,-2c0,-1.1 -0.18,-2 -0.4,-2c-0.22,0 -0.4,-0.709 -0.4,-1.576c0,-0.867 -0.18,-1.688 -0.4,-1.824c-0.22,-0.136 -0.4,-1.047 -0.4,-2.024c0,-0.977 -0.18,-1.776 -0.4,-1.776c-0.222,0 -0.4,-1.067 -0.4,-2.4c0,-1.333 -0.178,-2.4 -0.4,-2.4c-0.22,0 -0.4,-0.99 -0.4,-2.2c0,-1.21 -0.18,-2.2 -0.4,-2.2c-0.233,0 -0.4,-1.333 -0.4,-3.2c0,-1.867 -0.167,-3.2 -0.4,-3.2c-0.233,0 -0.4,-1.325 -0.4,-3.176c0,-1.747 -0.18,-3.288 -0.4,-3.424c-0.25,-0.154 -0.4,-4.063 -0.4,-10.4c0,-6.337 0.15,-10.246 0.4,-10.4c0.22,-0.136 0.4,-1.407 0.4,-2.824c0,-1.451 0.175,-2.576 0.4,-2.576c0.225,0 0.4,-1.125 0.4,-2.576c0,-1.417 0.18,-2.688 0.4,-2.824c0.22,-0.136 0.4,-0.777 0.4,-1.424c0,-0.647 0.18,-1.176 0.4,-1.176c0.22,0 0.4,-0.9 0.4,-2c0,-1.1 0.18,-2 0.4,-2c0.22,0 0.4,-0.36 0.4,-0.8c0,-0.44 0.18,-0.8 0.4,-0.8c0.22,0 0.4,-0.619 0.4,-1.376c0,-0.757 0.18,-1.488 0.4,-1.624c0.22,-0.136 0.4,-0.597 0.4,-1.024c0,-0.427 0.18,-0.776 0.4,-0.776c0.22,0 0.4,-0.439 0.4,-0.976c0,-0.537 0.18,-1.088 0.4,-1.224c0.22,-0.136 0.4,-0.597 0.4,-1.024c0,-0.427 0.18,-0.776 0.4,-0.776c0.22,0 0.4,-0.36 0.4,-0.8c0,-0.44 0.18,-0.8 0.4,-0.8c0.22,0 0.4,-0.32 0.4,-0.712c0,-0.391 0.36,-0.971 0.8,-1.288c0.44,-0.317 0.8,-0.897 0.8,-1.288c0,-0.392 0.18,-0.712 0.4,-0.712c0.22,0 0.4,-0.27 0.4,-0.6c0,-0.33 0.18,-0.6 0.4,-0.6c0.22,0 0.4,-0.27 0.4,-0.6c0,-0.33 0.18,-0.6 0.4,-0.6c0.22,0 0.4,-0.187 0.4,-0.415c0,-0.621 7.038,-7.48 7.983,-7.78c1.155,-0.366 1.169,-2.605 0.017,-2.605c-0.44,0 -0.8,-0.18 -0.8,-0.4c0,-0.22 -0.54,-0.4 -1.2,-0.4c-0.66,0 -1.2,-0.18 -1.2,-0.4c0,-0.22 -0.54,-0.4 -1.2,-0.4c-0.66,0 -1.2,-0.18 -1.2,-0.4c0,-0.22 -0.54,-0.4 -1.2,-0.4c-0.66,0 -1.2,-0.18 -1.2,-0.4c0,-0.22 -0.349,-0.4 -0.776,-0.4c-0.427,0 -0.888,-0.18 -1.024,-0.4c-0.136,-0.22 -0.687,-0.4 -1.224,-0.4c-0.537,0 -0.976,-0.18 -0.976,-0.4c0,-0.22 -0.36,-0.4 -0.8,-0.4c-0.44,0 -0.8,-0.18 -0.8,-0.4c0,-0.22 -0.349,-0.4 -0.776,-0.4c-0.427,0 -0.888,-0.18 -1.024,-0.4c-0.136,-0.22 -0.647,-0.4 -1.135,-0.4c-0.489,0 -1.148,-0.36 -1.465,-0.8c-0.317,-0.44 -0.953,-0.8 -1.413,-0.8c-0.46,0 -1.223,-0.36 -1.695,-0.8c-0.472,-0.44 -1.136,-0.8 -1.475,-0.8c-0.339,0 -0.617,-0.136 -0.617,-0.302c0,-0.167 -0.585,-0.562 -1.3,-0.878c-0.715,-0.317 -1.649,-0.9 -2.075,-1.298c-0.427,-0.397 -1.012,-0.722 -1.3,-0.722c-0.289,0 -0.525,-0.15 -0.525,-0.332c0,-0.183 -0.495,-0.587 -1.1,-0.898c-0.605,-0.31 -1.391,-0.881 -1.747,-1.267c-0.356,-0.387 -0.851,-0.703 -1.1,-0.703c-0.249,0 -0.453,-0.18 -0.453,-0.4c0,-0.22 -0.23,-0.4 -0.512,-0.4c-0.281,0 -0.771,-0.36 -1.088,-0.8c-0.317,-0.44 -0.778,-0.8 -1.025,-0.8c-0.246,0 -1.331,-0.835 -2.411,-1.855c-1.08,-1.021 -2.563,-2.313 -3.296,-2.872c-1.746,-1.333 -4.068,-3.665 -4.068,-4.086c0,-0.183 -0.36,-0.447 -0.8,-0.587c-0.44,-0.14 -0.8,-0.435 -0.8,-0.656c0,-0.22 -0.225,-0.633 -0.5,-0.917c-1.645,-1.697 -3.5,-3.824 -3.5,-4.013c0,-0.122 -0.54,-0.786 -1.2,-1.477c-0.66,-0.691 -1.2,-1.459 -1.2,-1.708c0,-0.249 -0.36,-0.712 -0.8,-1.029c-0.44,-0.317 -0.8,-0.857 -0.8,-1.2c0,-0.343 -0.36,-0.883 -0.8,-1.2c-0.44,-0.317 -0.8,-0.897 -0.8,-1.288c0,-0.392 -0.18,-0.712 -0.4,-0.712c-0.22,0 -0.4,-0.36 -0.4,-0.8c0,-0.44 -0.18,-0.8 -0.4,-0.8c-0.22,0 -0.4,-0.416 -0.4,-0.925c0,-0.508 -0.36,-1.311 -0.8,-1.783c-0.44,-0.472 -0.8,-1.136 -0.8,-1.475c0,-1.054 -1.906,-0.714 -3.263,0.583c-0.691,0.66 -1.499,1.2 -1.796,1.2c-0.298,0 -0.541,0.18 -0.541,0.4c0,0.22 -0.27,0.4 -0.6,0.4c-0.33,0 -0.6,0.18 -0.6,0.4c0,0.22 -0.27,0.4 -0.6,0.4c-0.33,0 -0.6,0.18 -0.6,0.4c0,0.22 -0.36,0.4 -0.8,0.4c-0.44,0 -0.8,0.146 -0.8,0.325c0,0.179 -0.63,0.573 -1.4,0.875c-0.77,0.302 -1.4,0.696 -1.4,0.875c0,0.179 -0.54,0.325 -1.2,0.325c-0.66,0 -1.2,0.18 -1.2,0.4c0,0.22 -0.36,0.4 -0.8,0.4c-0.44,0 -0.8,0.18 -0.8,0.4c0,0.22 -0.36,0.4 -0.8,0.4c-0.44,0 -0.8,0.18 -0.8,0.4c0,0.22 -0.72,0.4 -1.6,0.4c-0.88,0 -1.6,0.18 -1.6,0.4c0,0.22 -0.54,0.4 -1.2,0.4c-0.66,0 -1.2,0.18 -1.2,0.4c0,0.22 -0.72,0.4 -1.6,0.4c-0.88,0 -1.6,0.18 -1.6,0.4c0,0.22 -0.72,0.4 -1.6,0.4c-0.88,0 -1.6,0.18 -1.6,0.4c0,0.229 -1.2,0.4 -2.8,0.4c-1.6,0 -2.8,0.171 -2.8,0.4c0,0.246 -2,0.4 -5.2,0.4c-3.2,0 -5.2,0.154 -5.2,0.4c0,0.22 -0.54,0.4 -1.2,0.4c-0.66,0 -1.2,-0.18 -1.2,-0.4c0,-0.246 -2,-0.4 -5.2,-0.4c-3.2,0 -5.2,-0.154 -5.2,-0.4c0,-0.229 -1.2,-0.4 -2.8,-0.4c-1.6,0 -2.8,-0.171 -2.8,-0.4c0,-0.22 -0.619,-0.4 -1.376,-0.4c-0.757,0 -1.488,-0.18 -1.624,-0.4c-0.136,-0.22 -0.867,-0.4 -1.624,-0.4c-0.757,0 -1.376,-0.18 -1.376,-0.4c0,-0.22 -0.54,-0.4 -1.2,-0.4c-0.66,0 -1.2,-0.18 -1.2,-0.4c0,-0.22 -0.54,-0.4 -1.2,-0.4c-0.66,0 -1.2,-0.18 -1.2,-0.4c0,-0.22 -0.54,-0.4 -1.2,-0.4c-0.66,0 -1.2,-0.18 -1.2,-0.4c0,-0.22 -0.36,-0.4 -0.8,-0.4c-0.44,0 -0.8,-0.18 -0.8,-0.4c0,-0.22 -0.36,-0.4 -0.8,-0.4c-0.44,0 -0.8,-0.18 -0.8,-0.4c0,-0.22 -0.36,-0.4 -0.8,-0.4c-0.44,0 -0.8,-0.18 -0.8,-0.4c0,-0.22 -0.36,-0.4 -0.8,-0.4c-0.44,0 -0.8,-0.18 -0.8,-0.4c0,-0.22 -0.36,-0.4 -0.8,-0.4c-0.44,0 -0.8,-0.18 -0.8,-0.4c0,-0.22 -0.36,-0.4 -0.8,-0.4c-0.44,0 -0.8,-0.18 -0.8,-0.4c0,-0.22 -0.63,-0.4 -1.4,-0.4c-0.77,0 -1.4,0.18 -1.4,0.4c0,0.22 -0.27,0.4 -0.6,0.4c-0.33,0 -0.6,0.18 -0.6,0.4c0,0.22 -0.36,0.4 -0.8,0.4c-0.44,0 -0.8,0.18 -0.8,0.4c0,0.22 -0.36,0.4 -0.8,0.4c-0.44,0 -0.8,0.18 -0.8,0.4c0,0.22 -0.36,0.4 -0.8,0.4c-0.44,0 -0.8,0.18 -0.8,0.4c0,0.22 -0.45,0.4 -1,0.4c-0.55,0 -1,0.18 -1,0.4c0,0.22 -0.45,0.4 -1,0.4c-0.55,0 -1,0.18 -1,0.4c0,0.22 -0.36,0.4 -0.8,0.4c-0.44,0 -0.8,0.18 -0.8,0.4c0,0.22 -0.619,0.4 -1.376,0.4c-0.757,0 -1.488,0.18 -1.624,0.4c-0.136,0.22 -0.597,0.4 -1.024,0.4c-0.427,0 -0.776,0.18 -0.776,0.4c0,0.22 -0.81,0.4 -1.8,0.4c-0.99,0 -1.8,0.18 -1.8,0.4c0,0.22 -0.72,0.4 -1.6,0.4c-0.88,0 -1.6,0.18 -1.6,0.4c0,0.225 -1.125,0.4 -2.576,0.4c-1.417,0 -2.688,0.18 -2.824,0.4c-0.142,0.231 -2.271,0.4 -5.024,0.4c-2.917,0 -4.776,0.156 -4.776,0.4c0,0.22 -0.72,0.4 -1.6,0.4c-0.88,0 -1.6,-0.18 -1.6,-0.4c0,-0.245 -1.925,-0.4 -4.976,-0.4c-2.887,0 -5.081,-0.168 -5.224,-0.4c-0.136,-0.22 -1.396,-0.4 -2.8,-0.4c-1.404,0 -2.664,-0.18 -2.8,-0.4c-0.136,-0.22 -0.777,-0.4 -1.424,-0.4c-0.647,0 -1.176,-0.18 -1.176,-0.4c0,-0.22 -0.9,-0.4 -2,-0.4c-1.1,0 -2,-0.18 -2,-0.4c0,-0.22 -0.54,-0.4 -1.2,-0.4c-0.66,0 -1.2,-0.18 -1.2,-0.4c0,-0.22 -0.54,-0.4 -1.2,-0.4c-0.66,0 -1.2,-0.18 -1.2,-0.4c0,-0.22 -0.36,-0.4 -0.8,-0.4c-0.44,0 -0.8,-0.18 -0.8,-0.4c0,-0.22 -0.54,-0.4 -1.2,-0.4c-0.66,0 -1.2,-0.18 -1.2,-0.4c0,-0.22 -0.36,-0.4 -0.8,-0.4c-0.44,0 -0.8,-0.18 -0.8,-0.4c0,-0.22 -0.36,-0.4 -0.8,-0.4c-0.44,0 -0.8,-0.18 -0.8,-0.4c0,-0.22 -0.36,-0.4 -0.8,-0.4c-0.44,0 -0.8,-0.18 -0.8,-0.4c0,-0.22 -0.27,-0.4 -0.6,-0.4c-0.33,0 -0.6,-0.18 -0.6,-0.4c0,-0.22 -0.36,-0.4 -0.8,-0.4c-0.44,0 -0.8,-0.15 -0.8,-0.332c0,-0.183 -0.495,-0.588 -1.1,-0.9c-0.605,-0.313 -1.449,-0.883 -1.875,-1.268c-0.427,-0.385 -1.012,-0.7 -1.3,-0.7c-0.289,0 -0.525,-0.18 -0.525,-0.4c0,-0.22 -0.54,-0.4 -1.2,-0.4c-1.067,0 -1.2,0.133 -1.2,1.2m92.057,32.025c1.489,4.496 2.715,8.22 2.725,8.275c0.01,0.055 4.248,0.1 9.418,0.1c5.719,0 9.4,0.15 9.4,0.383c0,0.21 -3.442,2.685 -7.65,5.5c-4.207,2.814 -7.731,5.329 -7.831,5.588c-0.101,0.26 1.198,4.26 2.886,8.891c1.687,4.63 2.999,8.626 2.914,8.88c-0.129,0.388 -6.452,-4.43 -12.491,-9.518c-1.802,-1.518 -2.446,-1.622 -3.602,-0.579c-1.44,1.298 -13.112,10.113 -13.681,10.331c-0.805,0.309 -0.968,0.829 4.287,-13.705c0.643,-1.776 1.168,-3.513 1.168,-3.861c0,-0.561 -5.012,-4.294 -12.7,-9.46c-3.589,-2.412 -3.559,-2.423 6.8,-2.543l9.3,-0.107l2.766,-8.311c1.521,-4.572 2.95,-8.25 3.175,-8.175c0.226,0.075 1.628,3.815 3.116,8.311m-73.444,20.475c3.352,10.228 1.814,9.1 12.412,9.1c4.91,0 9.013,0.138 9.117,0.306c0.104,0.168 -1.101,1.184 -2.677,2.258c-10.199,6.948 -12.665,8.723 -12.665,9.113c0,0.484 5.486,15.715 6.05,16.799c0.895,1.718 -0.774,0.746 -6.093,-3.548c-3.166,-2.557 -6.45,-5.156 -7.298,-5.775l-1.541,-1.125l-3.259,2.511c-13.305,10.254 -12.725,9.908 -11.71,6.999c0.784,-2.244 3.49,-9.767 4.768,-13.253c1.198,-3.269 1.965,-2.353 -7.25,-8.655c-3.997,-2.733 -7.267,-5.115 -7.267,-5.292c0,-0.178 4.184,-0.372 9.298,-0.431l9.298,-0.107l2.494,-7.6c2.555,-7.785 3.152,-9.4 3.481,-9.4c0.103,0 1.382,3.645 2.842,8.1m147.21,0.1c1.266,3.96 2.482,7.605 2.703,8.1c0.4,0.895 0.452,0.9 9.472,0.9c4.988,0 9.181,0.113 9.319,0.25c0.2,0.2 -8.339,6.289 -13.848,9.873c-1.758,1.144 -1.718,1.415 1.49,10.215c2.879,7.901 3.298,9.262 2.851,9.262c-0.105,0 -2.331,-1.755 -4.948,-3.9c-2.616,-2.145 -5.846,-4.755 -7.177,-5.801l-2.42,-1.901l-3.333,2.521c-1.832,1.387 -5.261,3.991 -7.618,5.786c-4.95,3.771 -5.12,3.734 -3.484,-0.758c4.827,-13.256 4.993,-13.797 4.432,-14.472c-0.261,-0.315 -3.712,-2.781 -7.669,-5.479c-3.956,-2.699 -7.193,-5.059 -7.193,-5.244c0,-0.186 4.172,-0.386 9.27,-0.445l9.271,-0.107l2.821,-8.495c3.34,-10.058 2.95,-10.039 6.061,-0.305m-79.823,108.73c-6.331,3.687 -32.706,18.831 -34.8,19.983c-1.21,0.665 -2.65,1.514 -3.2,1.887c-0.55,0.373 -1.99,1.223 -3.2,1.889c-2.197,1.208 -16.94,9.671 -29.8,17.105c-3.74,2.162 -13.37,7.706 -21.4,12.32c-8.03,4.613 -15.23,8.753 -16,9.2c-0.77,0.446 -1.76,1.015 -2.2,1.264c-0.44,0.248 -1.88,1.075 -3.2,1.836c-1.32,0.762 -2.878,1.655 -3.463,1.985c-0.585,0.331 -4.301,2.464 -8.258,4.742l-7.195,4.14l0.858,1.66c0.472,0.912 0.993,1.719 1.158,1.792c0.165,0.074 0.3,0.389 0.3,0.7c0,0.312 0.18,0.567 0.4,0.567c0.22,0 0.4,0.36 0.4,0.8c0,0.44 0.18,0.8 0.4,0.8c0.22,0 0.4,0.236 0.4,0.525c0,0.288 0.36,0.911 0.8,1.383c0.44,0.472 0.8,1.136 0.8,1.475c0,0.339 0.18,0.617 0.4,0.617c0.22,0 0.4,0.27 0.4,0.6c0,0.33 0.15,0.6 0.332,0.6c0.183,0 0.587,0.495 0.898,1.1c0.31,0.605 0.881,1.391 1.267,1.747c0.387,0.356 0.703,0.859 0.703,1.118c0,0.259 0.425,0.896 0.944,1.415c0.519,0.52 1.365,1.636 1.879,2.482c0.515,0.846 1.26,1.829 1.656,2.185c0.397,0.356 0.721,0.829 0.721,1.052c0,0.222 0.72,1.146 1.6,2.053c0.88,0.907 1.6,1.815 1.6,2.019c0,0.528 13.111,13.629 13.64,13.629c0.241,0 0.943,0.54 1.56,1.2c0.617,0.66 1.369,1.2 1.672,1.2c0.303,0 0.811,0.36 1.128,0.8c0.317,0.44 0.857,0.8 1.2,0.8c0.343,0 0.883,0.36 1.2,0.8c0.317,0.44 0.814,0.8 1.105,0.8c0.291,0 0.915,0.36 1.387,0.8c0.472,0.44 1.095,0.8 1.383,0.8c0.289,0 0.525,0.18 0.525,0.4c0,0.22 0.345,0.4 0.767,0.4c0.421,0 0.826,0.135 0.9,0.3c0.179,0.404 2.195,1.581 4.033,2.355c0.825,0.348 1.5,0.792 1.5,0.988c0,0.197 0.315,0.358 0.7,0.358c0.385,0.001 1.289,0.361 2.01,0.8c0.72,0.44 1.665,0.799 2.1,0.799c0.434,0 0.79,0.18 0.79,0.4c0,0.22 0.36,0.4 0.8,0.4c0.44,0 0.8,0.18 0.8,0.4c0,0.22 0.349,0.4 0.776,0.4c0.427,0 0.888,0.18 1.024,0.4c0.136,0.22 0.687,0.4 1.224,0.4c0.537,0 0.976,0.18 0.976,0.4c0,0.22 0.36,0.4 0.8,0.4c0.44,0 0.8,0.18 0.8,0.4c0,0.22 0.414,0.4 0.92,0.4c0.506,0 1.091,0.15 1.3,0.333c0.209,0.183 2,0.838 3.98,1.456c1.98,0.618 3.913,1.278 4.295,1.467c0.382,0.189 1.147,0.344 1.7,0.344c0.553,0 1.005,0.18 1.005,0.4c0,0.22 0.54,0.4 1.2,0.4c0.66,0 1.2,0.18 1.2,0.4c0,0.22 0.72,0.4 1.6,0.4c0.88,0 1.6,0.18 1.6,0.4c0,0.22 0.54,0.4 1.2,0.4c0.66,0 1.2,0.18 1.2,0.4c0,0.22 0.72,0.4 1.6,0.4c0.88,0 1.6,0.18 1.6,0.4c0,0.22 0.72,0.4 1.6,0.4c0.88,0 1.6,0.18 1.6,0.4c0,0.22 0.72,0.4 1.6,0.4c0.88,0 1.6,0.18 1.6,0.4c0,0.222 1.067,0.4 2.4,0.4c1.333,0 2.4,0.178 2.4,0.4c0,0.22 0.54,0.4 1.2,0.4c0.66,0 1.2,0.18 1.2,0.4c0,0.22 0.9,0.4 2,0.4c1.1,0 2,0.18 2,0.4c0,0.22 0.72,0.4 1.6,0.4c0.88,0 1.6,0.18 1.6,0.4c0,0.22 0.72,0.4 1.6,0.4c0.88,0 1.6,0.18 1.6,0.4c0,0.22 0.54,0.4 1.2,0.4c0.66,0 1.2,0.18 1.2,0.4c0,0.22 0.54,0.4 1.2,0.4c0.66,0 1.2,0.18 1.2,0.4c0,0.22 0.54,0.4 1.2,0.4c0.66,0 1.2,0.18 1.2,0.4c0,0.22 0.45,0.4 1,0.4c0.55,0 1,0.18 1,0.4c0,0.22 0.36,0.4 0.8,0.4c0.44,0 0.8,0.18 0.8,0.4c0,0.22 0.36,0.4 0.8,0.4c0.44,0 0.8,0.18 0.8,0.4c0,0.22 0.36,0.4 0.8,0.4c0.44,0 0.8,0.18 0.8,0.4c0,0.22 0.288,0.4 0.64,0.4c0.351,0 1.116,0.495 1.7,1.1c0.583,0.605 1.555,1.355 2.16,1.668c0.605,0.312 1.1,0.78 1.1,1.04c0,0.26 0.54,1.038 1.2,1.729c0.66,0.691 1.2,1.527 1.2,1.859c0,0.332 0.18,0.604 0.4,0.604c0.22,0 0.4,0.439 0.4,0.976c0,0.537 0.18,1.088 0.4,1.224c0.22,0.136 0.4,0.777 0.4,1.424c0,1.04 0.139,1.176 1.2,1.176c1.067,0 1.2,-0.133 1.2,-1.2c0,-0.66 0.18,-1.2 0.4,-1.2c0.22,0 0.4,-0.54 0.4,-1.2c0,-0.66 0.18,-1.2 0.4,-1.2c0.22,0 0.4,-0.272 0.4,-0.604c0,-0.332 0.54,-1.168 1.2,-1.859c0.66,-0.691 1.2,-1.46 1.2,-1.71c0,-0.25 0.545,-0.776 1.211,-1.17c0.666,-0.393 1.648,-1.152 2.182,-1.686c0.534,-0.534 1.249,-0.971 1.589,-0.971c0.34,0 0.618,-0.18 0.618,-0.4c0,-0.22 0.236,-0.4 0.525,-0.4c0.288,0 0.911,-0.36 1.383,-0.8c0.472,-0.44 1.316,-0.8 1.875,-0.8c0.559,0 1.017,-0.18 1.017,-0.4c0,-0.22 0.36,-0.4 0.8,-0.4c0.44,0 0.8,-0.18 0.8,-0.4c0,-0.22 0.54,-0.4 1.2,-0.4c0.66,0 1.2,-0.18 1.2,-0.4c0,-0.22 0.54,-0.4 1.2,-0.4c0.66,0 1.2,-0.18 1.2,-0.4c0,-0.22 0.63,-0.4 1.4,-0.4c0.77,0 1.4,-0.18 1.4,-0.4c0,-0.22 0.72,-0.4 1.6,-0.4c0.88,0 1.6,-0.18 1.6,-0.4c0,-0.22 0.54,-0.4 1.2,-0.4c0.66,0 1.2,-0.18 1.2,-0.4c0,-0.22 0.9,-0.4 2,-0.4c1.1,0 2,-0.18 2,-0.4c0,-0.22 0.72,-0.4 1.6,-0.4c0.88,0 1.6,-0.18 1.6,-0.4c0,-0.22 0.979,-0.4 2.176,-0.4c1.197,0 2.288,-0.18 2.424,-0.4c0.136,-0.22 0.777,-0.4 1.424,-0.4c0.647,0 1.176,-0.18 1.176,-0.4c0,-0.22 0.799,-0.4 1.776,-0.4c0.977,0 1.888,-0.18 2.024,-0.4c0.136,-0.22 0.777,-0.4 1.424,-0.4c0.647,0 1.176,-0.18 1.176,-0.4c0,-0.22 0.529,-0.4 1.176,-0.4c0.647,0 1.288,-0.18 1.424,-0.4c0.136,-0.22 0.867,-0.4 1.624,-0.4c0.757,0 1.376,-0.18 1.376,-0.4c0,-0.22 0.54,-0.4 1.2,-0.4c0.66,0 1.2,-0.18 1.2,-0.4c0,-0.22 0.72,-0.4 1.6,-0.4c0.88,0 1.6,-0.14 1.6,-0.311c0,-0.172 1.304,-0.648 2.898,-1.058c1.594,-0.411 3.214,-0.901 3.6,-1.089c0.386,-0.188 1.06,-0.522 1.497,-0.742c0.437,-0.22 0.979,-0.4 1.204,-0.4c0.384,0 1.839,-0.598 5.912,-2.43c0.941,-0.424 1.976,-0.77 2.3,-0.77c0.324,0 0.589,-0.18 0.589,-0.4c0,-0.22 0.36,-0.4 0.8,-0.4c0.44,0 0.8,-0.18 0.8,-0.4c0,-0.22 0.36,-0.4 0.8,-0.4c0.44,0 0.8,-0.18 0.8,-0.4c0,-0.22 0.36,-0.4 0.8,-0.4c0.44,0 0.8,-0.18 0.8,-0.4c0,-0.22 0.36,-0.4 0.8,-0.4c0.44,0 0.8,-0.18 0.8,-0.4c0,-0.22 0.36,-0.4 0.8,-0.4c0.44,0 0.8,-0.18 0.8,-0.4c0,-0.22 0.36,-0.4 0.8,-0.4c0.44,0 0.8,-0.18 0.8,-0.4c0,-0.22 0.278,-0.4 0.617,-0.4c0.339,0 1.003,-0.36 1.475,-0.8c0.472,-0.44 1.095,-0.8 1.383,-0.8c0.289,0 0.525,-0.18 0.525,-0.4c0,-0.22 0.32,-0.4 0.712,-0.4c0.391,0 0.971,-0.36 1.288,-0.8c0.317,-0.44 0.857,-0.8 1.2,-0.8c0.343,0 0.883,-0.36 1.2,-0.8c0.317,-0.44 0.857,-0.8 1.2,-0.8c0.343,0 0.883,-0.36 1.2,-0.8c0.317,-0.44 0.785,-0.8 1.04,-0.8c0.255,0 1.205,-0.72 2.112,-1.6c0.907,-0.88 1.819,-1.6 2.026,-1.6c0.452,0 8.422,-7.859 8.422,-8.304c0,-0.171 1.08,-1.474 2.4,-2.896c1.32,-1.422 2.4,-2.701 2.4,-2.842c0,-0.142 0.63,-0.945 1.4,-1.786c0.77,-0.841 1.4,-1.681 1.4,-1.868c0,-0.187 0.405,-0.774 0.9,-1.303c1.557,-1.665 1.9,-2.152 1.9,-2.696c0,-0.291 0.36,-0.788 0.8,-1.105c0.44,-0.317 0.8,-0.809 0.8,-1.092c0,-0.283 0.534,-1.074 1.186,-1.757c0.653,-0.683 1.417,-1.761 1.698,-2.396c0.281,-0.635 0.647,-1.155 0.814,-1.155c0.166,0 0.302,-0.27 0.302,-0.6c0,-0.33 0.18,-0.6 0.4,-0.6c0.22,0 0.4,-0.27 0.4,-0.6c0,-0.33 0.18,-0.6 0.4,-0.6c0.22,0 0.4,-0.36 0.4,-0.8c0,-0.44 0.18,-0.8 0.4,-0.8c0.22,0 0.4,-0.278 0.4,-0.617c0,-0.339 0.36,-1.003 0.8,-1.475c0.44,-0.472 0.8,-1.275 0.8,-1.783c0,-0.509 0.18,-0.925 0.4,-0.925c0.22,0 0.4,-0.255 0.4,-0.567c0,-0.311 0.225,-0.657 0.5,-0.768c0.296,-0.119 0.21,-0.215 -0.208,-0.233c-0.605,-0.027 -19.725,-10.717 -25.092,-14.028c-0.99,-0.611 -2.61,-1.558 -3.6,-2.105c-0.99,-0.546 -10.8,-6.175 -21.8,-12.51c-11,-6.334 -25.31,-14.569 -31.8,-18.3c-6.49,-3.731 -12.385,-7.122 -13.1,-7.536c-0.715,-0.414 -1.93,-1.113 -2.7,-1.553c-0.77,-0.44 -2.03,-1.16 -2.8,-1.6c-0.77,-0.44 -1.985,-1.137 -2.7,-1.548c-36.3,-20.888 -31.272,-18.551 -35.1,-16.322m-17.2,38.832c6.05,3.933 13.565,8.835 16.7,10.894c3.135,2.059 8.355,5.485 11.6,7.613c14.404,9.447 34.549,22.67 41.8,27.438c8.545,5.619 8.385,5.435 7.32,8.419c-1.326,3.72 3.127,6.287 -46.119,-26.58c-24.35,-16.25 -44.414,-29.546 -44.587,-29.546c-2.078,0 3.13,3.659 43.541,30.592c24.09,16.056 43.981,29.411 44.202,29.677c0.451,0.543 -2.564,4.131 -3.471,4.131c-0.44,0 -11.766,-7.282 -39.786,-25.581c-3.63,-2.371 -11.1,-7.235 -16.6,-10.809c-5.5,-3.574 -10.81,-7.046 -11.8,-7.717c-18.603,-12.601 -21.292,-14.511 -21.796,-15.485c-0.771,-1.492 -3.804,-9.137 -3.804,-9.591c0,-0.54 2.037,-0.727 7.2,-0.663l4.6,0.057l11,7.151m63.236,-6.686c0.328,0.328 0.054,1.38 -1.042,3.985c-0.819,1.947 -1.777,4.227 -2.131,5.068c-0.727,1.731 -0.817,1.799 -15.113,11.437l-9.65,6.507l-2.85,-1.895c-1.568,-1.043 -2.85,-2.017 -2.85,-2.165c0,-0.148 5.511,-3.942 12.247,-8.431c11.472,-7.646 13.032,-8.836 12.403,-9.465c-0.136,-0.136 -6.114,3.662 -13.284,8.441l-13.036,8.69l-2.561,-1.668c-3.042,-1.982 -3.133,-1.749 1.968,-5.067c14.164,-9.213 23.158,-14.999 24.263,-15.607c1.234,-0.679 10.928,-0.538 11.636,0.17m-55.03,31.581c1.207,0.801 2.187,1.656 2.179,1.9c-0.022,0.693 -44.728,30.351 -45.376,30.102c-0.776,-0.298 -1.734,-2.249 -2.038,-4.149l-0.252,-1.575l11.539,-7.567c6.346,-4.163 15.769,-10.39 20.94,-13.839c10.57,-7.05 10.032,-6.849 13.008,-4.872m6.996,4.442c1.319,0.824 2.398,1.698 2.398,1.941c0,0.473 -3.794,3.014 -30.331,20.319c-18.629,12.148 -17.464,11.559 -19.255,9.741c-1.85,-1.879 -2.121,-2.513 -1.346,-3.158c1.649,-1.372 45.19,-30.303 45.634,-30.321c0.276,-0.012 1.581,0.653 2.9,1.478m-55.202,18.373c0,2.681 0.903,7.153 1.804,8.934c2.558,5.054 5.531,7.825 11.896,11.089c1.766,0.905 2.177,0.524 -8.04,7.441c-4.008,2.713 -3.879,2.763 -4.185,-1.622c-0.598,-8.551 -4.872,-14.447 -13.645,-18.82c-1.923,-0.959 -2.196,-0.681 5.552,-5.665c6.013,-3.867 6.618,-3.991 6.618,-1.357m128.6,2.136c6.518,4.17 6.37,3.851 2.675,5.782c-7.641,3.991 -12.015,10.841 -12.061,18.886c-0.008,1.362 -0.189,2.585 -0.403,2.717c-0.424,0.262 -12.811,-8.038 -12.811,-8.584c0,-0.184 1.568,-1.207 3.484,-2.272c7.336,-4.079 11.316,-10.582 11.316,-18.492c0,-1.931 0.654,-2.631 1.776,-1.901c0.453,0.295 3.164,2.034 6.024,3.864m-130.332,9.255c-0.507,1.938 2.023,5.32 3.793,5.07c0.754,-0.107 0.962,-0.409 1.053,-1.533c0.236,-2.897 -4.172,-6.114 -4.846,-3.537m120.547,0.637c-2.534,3.058 -0.589,6.195 2.101,3.388c1.157,-1.208 1.837,-3.011 1.579,-4.188c-0.287,-1.31 -2.293,-0.874 -3.68,0.8m-123.438,4c2.675,3.67 2.666,3.57 0.483,5.546c-2.06,1.865 -6.66,4.29 -7.739,4.081c-0.359,-0.07 -0.994,-0.757 -1.411,-1.527c-0.418,-0.77 -1.108,-1.699 -1.535,-2.064c-1.515,-1.298 1.356,-4.686 5.721,-6.751c3.138,-1.484 2.844,-1.531 4.481,0.715m134.823,-0.595c4.174,2.093 6.905,5.371 5.485,6.582c-0.46,0.392 -1.177,1.343 -1.595,2.113c-0.417,0.77 -1.052,1.457 -1.411,1.527c-1.078,0.209 -5.679,-2.216 -7.736,-4.079l-1.926,-1.743l0.792,-1.478c2.272,-4.244 3.048,-4.599 6.391,-2.922m-146.631,8.531c1.34,1.127 1.629,2.853 0.787,4.701c-0.97,2.128 -4.18,2.5 -5.987,0.694c-3.498,-3.498 1.407,-8.587 5.2,-5.395m158.562,-0.219c2.775,2.183 1.037,6.752 -2.576,6.774c-3.71,0.023 -5.01,-5.241 -1.755,-7.108c1.245,-0.714 3.189,-0.564 4.331,0.334" id="svg_3"/>
 </g>
</svg>