<?xml version="1.0" standalone="no"?>
<!DOCTYPE svg PUBLIC "-//W3C//DTD SVG 20010904//EN"
 "http://www.w3.org/TR/2001/REC-SVG-20010904/DTD/svg10.dtd">
<svg version="1.0" xmlns="http://www.w3.org/2000/svg"
 width="500.000000pt" height="460.000000pt" viewBox="0 0 500.000000 460.000000"
 preserveAspectRatio="xMidYMid meet">

<g transform="translate(0.000000,460.000000) scale(0.100000,-0.100000)"
fill="#000000" stroke="none">
<path d="M2095 4120 c-209 -154 -383 -279 -387 -277 -4 1 -103 106 -221 233
l-215 231 -153 38 c-85 20 -161 39 -170 41 -14 4 -13 -17 10 -170 l26 -175
175 -198 c96 -109 185 -209 197 -224 l22 -26 -399 -294 c-220 -161 -400 -299
-400 -307 0 -7 110 -369 245 -804 135 -435 245 -797 245 -804 0 -16 -300 -345
-309 -339 -4 2 -24 49 -45 105 -21 55 -42 99 -47 98 -11 -4 -311 -329 -307
-333 2 -2 51 -15 110 -29 104 -25 198 -61 198 -76 0 -4 -27 -24 -60 -44 -111
-69 -194 -166 -229 -268 -13 -37 -24 -52 -51 -66 -43 -21 -80 -75 -80 -116 0
-66 65 -136 128 -136 59 0 132 61 132 111 0 9 22 25 57 39 82 34 186 140 237
243 22 42 43 77 46 77 13 0 69 -115 98 -203 17 -49 32 -90 34 -93 3 -2 72 72
154 165 l149 170 1215 1 1216 0 149 -170 c83 -94 152 -170 155 -170 3 0 13 28
23 63 27 92 75 202 97 222 17 16 20 13 61 -67 55 -104 142 -195 228 -235 47
-22 62 -34 66 -56 4 -15 20 -40 36 -57 82 -82 219 -22 219 96 0 34 -7 51 -31
79 -17 19 -42 38 -55 41 -17 4 -27 19 -39 54 -36 107 -127 214 -242 283 -29
18 -53 35 -53 38 0 13 117 57 195 74 44 10 90 20 101 24 19 5 4 26 -133 173
-86 92 -159 166 -163 163 -4 -2 -24 -49 -46 -105 -21 -55 -42 -99 -46 -98 -7
3 -184 193 -258 278 l-48 55 188 580 c103 319 221 685 263 813 l75 232 -409
291 c-225 160 -411 295 -415 300 -3 5 73 98 168 205 95 108 183 209 196 225
18 23 27 58 46 196 13 92 23 169 22 170 -1 1 -77 -16 -169 -38 l-167 -41 -216
-234 c-119 -129 -221 -234 -226 -234 -5 0 -183 124 -396 277 -213 152 -394
278 -402 280 -8 2 -186 -123 -395 -277z m575 -431 c94 -288 184 -566 201 -616
l31 -93 696 0 c675 -1 696 -1 675 -19 -12 -10 -271 -188 -577 -395 -305 -207
-558 -381 -561 -386 -3 -6 103 -309 235 -676 133 -366 240 -668 237 -670 -2
-2 -231 180 -509 404 -278 225 -524 423 -545 440 l-39 31 -564 -430 c-310
-236 -565 -428 -567 -426 -1 2 103 297 232 656 129 358 235 657 235 664 -1 7
-257 187 -570 402 -314 214 -570 393 -570 397 0 4 309 9 686 10 l686 3 200
605 c109 333 201 611 204 619 2 8 7 12 9 9 3 -3 82 -241 175 -529z m-1427
-2851 c14 -46 29 -95 32 -110 l7 -27 -94 25 c-51 14 -98 29 -105 33 -8 4 10
32 54 84 36 42 69 77 73 77 4 0 19 -37 33 -82z m2615 14 c34 -38 62 -74 64
-81 2 -8 -31 -22 -97 -41 -55 -16 -101 -27 -103 -25 -6 6 61 215 69 215 4 0
34 -31 67 -68z"/>
</g>
</svg>
